<?xml version="1.0" encoding="utf-8"?>
<!-- Generator: Adobe Illustrator 27.2.0, SVG Export Plug-In . SVG Version: 6.00 Build 0)  -->
<svg version="1.1" id="Layer_1" xmlns="http://www.w3.org/2000/svg" xmlns:xlink="http://www.w3.org/1999/xlink" x="0px" y="0px"
	 viewBox="0 0 630 655" style="enable-background:new 0 0 630 655;" xml:space="preserve">
<style type="text/css">
	.st0{fill:#D30000;}
</style>
<path class="st0" d="M304.5,576.9l5.3-101c0.3-6.1-4.5-11.3-10.6-11.6c-0.8,0-1.6,0-2.4,0.1l-100.6,17.7l13.6-37.5
	c1.1-3.1,0.2-6.5-2.3-8.5L97.2,346.9l24.8-11.6c3.5-1.6,5.2-5.6,4-9.2l-21.8-67l63.5,13.5c3.5,0.7,7.1-1.1,8.5-4.4l12.3-28.9
	l49.5,53.2c2.9,3.1,7.7,3.2,10.8,0.3c1.9-1.8,2.7-4.4,2.2-7l-23.9-123.2l38.3,22.1c3.6,2.1,8.3,0.9,10.4-2.7
	c0.1-0.1,0.2-0.3,0.2-0.4l39-76.5l38.9,76.3c1.9,3.8,6.5,5.3,10.2,3.4c0.2-0.1,0.3-0.2,0.4-0.2l38.3-22.1l-23.9,123.2
	c-0.8,4.1,1.9,8.1,6,8.9c2.5,0.5,5.2-0.4,7-2.2l49.5-53.2l12.3,28.9c1.4,3.3,5,5.2,8.5,4.4l63.5-13.5L504,326
	c-1.2,3.6,0.5,7.6,4,9.2l24.8,11.6L422.6,436c-2.5,2.1-3.5,5.5-2.3,8.5l13.6,37.5l-100.6-17.7c-6.1-1-11.8,3-12.8,9.1
	c-0.1,0.8-0.2,1.6-0.1,2.4l5.3,101h-21.2V576.9z"/>
</svg>
