<?xml version="1.0" encoding="UTF-8"?>
<svg id="david" xmlns="http://www.w3.org/2000/svg" xmlns:xlink="http://www.w3.org/1999/xlink" viewBox="0 0 384 320">
  <defs>
    <clipPath id="clippath">
      <circle cx="209.799" cy="77.169" r="64.33" fill="none"/>
    </clipPath>
  </defs>
  <g>
    <path d="m217.015,157.543l-2.153,10.735c-3.947,19.686-13.958,37.642-28.628,51.351l-10.097,9.435,30.048,16.985c4.195,2.371,9.505,1.171,12.272-2.773h0c14.71-20.966,21.452-46.496,19.012-71.991l-2.114-22.089-18.34,8.348Z" fill="#a92a40"/>
    <path d="m217.015,157.543l-2.153,10.735c-3.947,19.686-13.958,37.642-28.628,51.351l-10.097,9.435" fill="none" stroke="#d33c3c" stroke-miterlimit="10" stroke-width="3"/>
    <path d="m237.469,171.284l-1.85-19.325c.29,3.146,1.295,31.35-6.751,54.157-7.28,20.635-18.929,29.313-25.852,38.142l3.168,1.791c4.195,2.371,9.505,1.171,12.272-2.773h0c14.71-20.966,21.452-46.496,19.012-71.991Z" fill="#7d2a43"/>
  </g>
  <g>
    <path d="m194.569,243.919l-67.72-34.557c-8.51-4.342-18.919-1.721-24.357,6.133l-41.607,60.089,18.417,8.951,33.923-48.992c3.052-4.407,8.892-5.878,13.667-3.441l43.448,22.171c9.128,4.658,20.305,1.034,24.963-8.094h0c.422-.826.094-1.838-.733-2.259Z" fill="#162233"/>
    <path d="m79.301,284.536l-35.407-18.365c-6.093-3.16-13.582-.386-16.147,5.98h0c-2.245,5.573.117,11.94,5.454,14.699l27.282,14.105c3.348,1.731,7.462.665,9.548-2.474l9.269-13.944Z" fill="#717171"/>
    <path d="m69.826,298.771l-37.915-21.046c-1.588-.881-3.31-1.304-5.01-1.309" fill="none" stroke="#494c4c" stroke-miterlimit="10"/>
    <path d="m194.569,243.919l-67.72-34.557c-8.51-4.342-18.919-1.721-24.357,6.133l-41.607,60.089" fill="none" stroke="#23344c" stroke-miterlimit="10" stroke-width="3"/>
  </g>
  <path d="m235.414,150.33l-8.359-2.714c-2.74-.89-5.735-.509-8.165,1.038h0c-3.21,2.043-5.021,5.699-4.701,9.491l1.292,15.286c.21,2.49,3.471,3.277,4.795,1.157l15.139-24.258Z" fill="#a92a40" stroke="#d33c3c" stroke-miterlimit="10" stroke-width="3"/>
  <polygon points="219.058 137.145 223.136 159.567 233.801 153.493 226.043 134.837 219.058 137.145" fill="#eda483"/>
  <g>
    <path d="m216.627,175.279l5.506-16.661c2.381-7.204,8.868-12.263,16.435-12.817h0c9.188-.672,16.757,7.113,15.825,16.278h0c-.844,8.309-7.61,14.769-15.949,15.228l-1.653-7.146c-1.2-5.19-7.883-6.67-11.162-2.47l-6.637,8.5c-.771,1.15-2.567.458-2.367-.912Z" fill="#a92a40" stroke="#a92a40" stroke-miterlimit="10" stroke-width="3"/>
    <path d="m216.627,175.279l5.506-16.661c2.381-7.204,8.868-12.263,16.435-12.817h0" fill="none" stroke="#d33c3c" stroke-linecap="round" stroke-miterlimit="10" stroke-width="3"/>
    <path d="m255.886,162.231c.489-4.811-1.164-9.559-4.535-13.026-.956-.983-2.027-1.814-3.168-2.516-.076,3.059-.547,6.655-1.924,10.2-2.396,6.166-8.526,9.774-12.081,11.415.551.599.954,1.34,1.152,2.195l1.937,8.375,1.26-.069c9.134-.502,16.435-7.473,17.359-16.573Z" fill="#7d2a43"/>
  </g>
  <g clip-path="url(#clippath)">
    <rect x="119.194" y="-11.111" width="180.985" height="174.38" fill="#eda483"/>
    <circle cx="204.137" cy="77.288" r="61.324" fill="#fdd0a6"/>
  </g>
  <circle cx="198.552" cy="101.423" r="5.499" fill="#de7661"/>
  <g>
    <path d="m272.48,62.723c-6.559-28.569-32.122-49.884-62.682-49.884-11.697,0-22.655,3.138-32.107,8.594l-.02-.009-11.216,4.855c-6.936,3.003-14.789,3.085-21.786.229h0c-1.387-.566-2.792.771-2.294,2.184l.44,1.251c1.68,4.772,5.403,8.545,10.153,10.287h0c.583.214.494,1.066-.121,1.154l-2.011.289c-9.223,1.326-18.629-.292-26.879-4.623h0c-1.859-.976-3.964.798-3.317,2.795,3.93,12.142,13.794,21.384,26.095,24.582.366.095.727.204,1.097.288l9.261,2.109,78.308,10.931c6.81.951,11.09,7.843,8.923,14.369l-2.653,7.989c-.786,2.366.358,4.941,2.641,5.943h0c2.225.977,4.829.149,6.081-1.934l1.393-2.317c2.951-4.911,7.921-8.268,13.579-9.171l7.143-1.141c1.049-4.609,1.621-9.399,1.621-14.326,0-4.969-.582-9.8-1.649-14.446Z" fill="#5c4451" stroke="#5c4451" stroke-miterlimit="10" stroke-width="4"/>
    <path d="m152.848,41.385l-2.011.289c-9.223,1.326-18.629-.292-26.879-4.623h0" fill="none" stroke="#886261" stroke-linecap="round" stroke-miterlimit="10" stroke-width="4"/>
    <path d="m209.799,12.838c-11.697,0-22.655,3.138-32.107,8.594l-.02-.009-11.216,4.855c-6.936,3.003-14.789,3.085-21.786.229h0" fill="none" stroke="#886261" stroke-linecap="round" stroke-miterlimit="10" stroke-width="4"/>
  </g>
  <circle cx="163.524" cy="82.135" r="29.267" fill="#fff" stroke="#231f20" stroke-miterlimit="10" stroke-width="5"/>
  <circle cx="223.083" cy="69.688" r="29.267" fill="#fff" stroke="#231f20" stroke-miterlimit="10" stroke-width="5"/>
  <line x1="249.002" y1="80.812" x2="279.282" y2="102.45" fill="none" stroke="#231f20" stroke-miterlimit="10" stroke-width="6"/>
  <circle cx="175.096" cy="83.172" r="5.625" fill="#231f20"/>
  <circle cx="230.349" cy="73.326" r="5.625" fill="#231f20"/>
  <circle cx="269.623" cy="105.306" r="14.669" fill="#eda483" stroke="#eda483" stroke-miterlimit="10" stroke-width="3"/>
  <path d="m277.527,103.11c-1.213-4.365-5.735-6.92-10.1-5.708s-6.92,5.735-5.708,10.1" fill="none" stroke="#de7661" stroke-linecap="round" stroke-miterlimit="10" stroke-width="3"/>
  <g>
    <path d="m192.911,118.15l-1.368-3.8-4.742,1.708c-1.25.45-1.78,1.928-1.101,3.07l2.201,3.703c9.349,15.728,32.968,7.932,32.121-9.418l-21.059,7.584c-2.457.885-5.167-.39-6.051-2.847Z" fill="#6f1811"/>
    <path d="m219.154,107.08c-.205-1.313-1.556-2.113-2.805-1.663l-24.806,8.933,1.368,3.8c.885,2.457,3.594,3.732,6.051,2.847l21.059-7.584c-.033-.68-.091-1.369-.202-2.077l-.665-4.257Z" fill="#fff"/>
  </g>
  <path d="m167.312,223.296l-1.606-6.899c-.955-4.102-3.704-7.557-7.487-9.409h0c-3.562-1.743-7.695-1.896-11.376-.421l-6.478,2.597c-1.767.708-1.939,3.142-.29,4.093l22.951,13.219c.657.379,1.437.486,2.172.298h0c1.534-.391,2.473-1.937,2.114-3.479Z" fill="#fdd0a6"/>
  <g>
    <path d="m224.727,168.915h0c-3.419,25.132-22,45.544-46.701,51.304l-15.547,3.625c-3.817.89-3.171,6.508.749,6.508h22.365c28.793,0,51.413-24.65,48.945-53.337l-.678-7.875c-.47-5.465-8.393-5.661-9.132-.226Z" fill="#a92a40"/>
    <path d="m163.227,230.352h22.365c28.793,0,51.413-24.65,48.945-53.337l-.678-7.875c-.47-5.465-8.393-5.661-9.132-.226" fill="none" stroke="#7d2a43" stroke-miterlimit="10" stroke-width="3"/>
    <path d="m224.727,168.915h0c-3.419,25.132-22,45.544-46.701,51.304l-15.547,3.625" fill="none" stroke="#d33c3c" stroke-linecap="round" stroke-miterlimit="10" stroke-width="3"/>
  </g>
  <g>
    <path d="m169.462,215.739l-26.102-6.395-14.365-35.855c-.24-.599-.754-1.045-1.381-1.198l-43.673-10.699c-.729-.18-1.494.067-1.986.631-.491.565-.625,1.359-.346,2.055l14.747,36.809c.012.03.032.054.045.083.044.097.094.19.153.279.029.044.061.085.094.126.059.075.122.144.191.21.038.036.074.071.114.104.079.064.164.12.253.172.038.022.073.048.113.068.131.065.269.12.417.157l70.774,17.339c.256.063.513.074.759.038.785-.112,1.46-.688,1.66-1.505.263-1.072-.394-2.155-1.466-2.418Z" fill="#443237"/>
    <path d="m126.03,176.616c-.24-.599-.754-1.045-1.381-1.198l-42.777-10.48,14.482,36.149c.012.03.032.054.045.083.044.097.094.19.153.279.029.044.061.085.094.126.059.075.122.144.191.21.038.036.074.071.114.104.079.064.164.12.253.172.038.022.073.048.113.068.131.065.269.12.417.157l42.777,10.48-14.483-36.149Z" fill="#826971"/>
  </g>
  <g>
    <path d="m208.273,245.673l-67.72-34.557c-8.51-4.342-18.919-1.721-24.357,6.133l-41.607,60.089,18.417,8.951,33.923-48.992c3.052-4.407,8.892-5.878,13.667-3.441l43.448,22.171c9.128,4.658,20.305,1.034,24.963-8.094h0c.422-.826.094-1.838-.733-2.259Z" fill="#23344c"/>
    <path d="m93.004,286.084l33.923-48.992c3.052-4.407,8.892-5.878,13.667-3.441l43.448,22.171c9.128,4.658,20.305,1.034,24.963-8.094h0" fill="none" stroke="#162233" stroke-linecap="square" stroke-linejoin="round" stroke-width="3"/>
    <path d="m90.697,284.891l33.923-48.992c3.052-4.407,8.892-5.878,13.667-3.441l43.448,22.171c9.128,4.658,20.305,1.034,24.963-8.094h0" fill="none" stroke="#162233" stroke-linecap="square" stroke-linejoin="round" stroke-width="3"/>
    <path d="m94.436,286.972l-35.407-18.365c-6.093-3.16-13.582-.386-16.147,5.98h0c-2.245,5.573.117,11.94,5.454,14.699l27.282,14.105c3.348,1.731,7.462.665,9.548-2.474l9.269-13.944Z" fill="#929292"/>
    <path d="m84.961,301.207l-37.915-21.046c-1.588-.881-3.31-1.304-5.01-1.309" fill="none" stroke="#6e7877" stroke-miterlimit="10"/>
  </g>
  <path d="m277.977,93.247c-3.458-2.393-7.913-3.289-12.281-2.075-7.806,2.169-12.376,10.255-10.207,18.061.271.976.635,1.901,1.079,2.769" fill="none" stroke="#fdd0a6" stroke-linecap="round" stroke-miterlimit="10" stroke-width="3"/>
</svg>