<?xml version="1.0" encoding="UTF-8"?>
<svg id="david_lower" xmlns="http://www.w3.org/2000/svg" viewBox="0 0 384 320">
  <g>
    <path d="m194.569,243.919l-67.72-34.557c-8.51-4.342-18.919-1.721-24.357,6.133l-41.607,60.089,18.417,8.951,33.923-48.992c3.052-4.407,8.892-5.878,13.667-3.441l43.448,22.171c9.128,4.658,20.305,1.034,24.963-8.094h0c.422-.826.094-1.838-.733-2.259Z" fill="#162233"/>
    <path d="m79.301,284.536l-35.407-18.365c-6.093-3.16-13.582-.386-16.147,5.98h0c-2.245,5.573.117,11.94,5.454,14.699l27.282,14.105c3.348,1.731,7.462.665,9.548-2.474l9.269-13.944Z" fill="#717171"/>
    <path d="m69.826,298.771l-37.915-21.046c-1.588-.881-3.31-1.304-5.01-1.309" fill="none" stroke="#494c4c" stroke-miterlimit="10"/>
    <path d="m194.569,243.919l-67.72-34.557c-8.51-4.342-18.919-1.721-24.357,6.133l-41.607,60.089" fill="none" stroke="#23344c" stroke-miterlimit="10" stroke-width="3"/>
  </g>
  <g>
    <path d="m169.462,215.739l-26.102-6.395-14.365-35.855c-.24-.599-.754-1.045-1.381-1.198l-43.673-10.699c-.729-.18-1.494.067-1.986.631-.491.565-.625,1.359-.346,2.055l14.747,36.809c.012.03.032.054.045.083.044.097.094.19.153.279.029.044.061.085.094.126.059.075.122.144.191.21.038.036.074.071.114.104.079.064.164.12.253.172.038.022.073.048.113.068.131.065.269.12.417.157l70.774,17.339c.256.063.513.074.759.038.785-.112,1.46-.688,1.66-1.505.263-1.072-.394-2.155-1.466-2.418Z" fill="#443237"/>
    <path d="m126.03,176.616c-.24-.599-.754-1.045-1.381-1.198l-42.777-10.48,14.482,36.149c.012.03.032.054.045.083.044.097.094.19.153.279.029.044.061.085.094.126.059.075.122.144.191.21.038.036.074.071.114.104.079.064.164.12.253.172.038.022.073.048.113.068.131.065.269.12.417.157l42.777,10.48-14.483-36.149Z" fill="#826971"/>
  </g>
  <g>
    <path d="m208.273,245.673l-67.72-34.557c-8.51-4.342-18.919-1.721-24.357,6.133l-41.607,60.089,18.417,8.951,33.923-48.992c3.052-4.407,8.892-5.878,13.667-3.441l43.448,22.171c9.128,4.658,20.305,1.034,24.963-8.094h0c.422-.826.094-1.838-.733-2.259Z" fill="#23344c"/>
    <path d="m93.004,286.084l33.923-48.992c3.052-4.407,8.892-5.878,13.667-3.441l43.448,22.171c9.128,4.658,20.305,1.034,24.963-8.094h0" fill="none" stroke="#162233" stroke-linecap="square" stroke-linejoin="round" stroke-width="3"/>
    <path d="m90.697,284.891l33.923-48.992c3.052-4.407,8.892-5.878,13.667-3.441l43.448,22.171c9.128,4.658,20.305,1.034,24.963-8.094h0" fill="none" stroke="#162233" stroke-linecap="square" stroke-linejoin="round" stroke-width="3"/>
    <path d="m94.436,286.972l-35.407-18.365c-6.093-3.16-13.582-.386-16.147,5.98h0c-2.245,5.573.117,11.94,5.454,14.699l27.282,14.105c3.348,1.731,7.462.665,9.548-2.474l9.269-13.944Z" fill="#929292"/>
    <path d="m84.961,301.207l-37.915-21.046c-1.588-.881-3.31-1.304-5.01-1.309" fill="none" stroke="#6e7877" stroke-miterlimit="10"/>
  </g>
</svg>