<?xml version="1.0" encoding="UTF-8"?>
<svg id="david_copy" data-name="david copy" xmlns="http://www.w3.org/2000/svg" viewBox="0 0 384 320">
  <g>
    <path d="m194.569,242.919l-67.72-34.557c-8.51-4.342-18.919-1.721-24.357,6.133l-41.607,60.089,18.417,8.951,33.923-48.992c3.052-4.407,8.892-5.878,13.667-3.441l43.448,22.171c9.128,4.658,20.305,1.034,24.963-8.094h0c.422-.826.094-1.838-.733-2.259Z" fill="#0f1824"/>
    <path d="m79.301,283.536l-35.407-18.365c-6.093-3.16-13.582-.386-16.147,5.98h0c-2.245,5.573.117,11.94,5.454,14.699l27.282,14.105c3.348,1.731,7.462.665,9.548-2.474l9.269-13.944Z" fill="#717171"/>
    <path d="m69.826,297.771l-37.915-21.046c-1.588-.881-3.31-1.304-5.01-1.309" fill="none" stroke="#494c4c" stroke-miterlimit="10"/>
  </g>
  <path d="m216.612,157.704l-2.194,10.942c-4.023,20.065-14.227,38.367-29.179,52.34l-10.291,9.617,30.626,17.312c4.276,2.417,9.688,1.194,12.509-2.827h0c14.994-21.37,21.866-47.391,19.378-73.378l-2.155-22.514-18.693,8.509Z" fill="#a53332"/>
  <path d="m232.411,151.387l-8.359-2.714c-2.74-.89-5.735-.509-8.165,1.038h0c-3.21,2.043-5.021,5.699-4.701,9.491l1.292,15.286c.21,2.49,3.471,3.277,4.795,1.157l15.139-24.258Z" fill="#a53332" stroke="#6c0f0f" stroke-miterlimit="10" stroke-width="3"/>
  <polygon points="215.475 137.769 219.282 160.82 231.512 152.851 222.247 134.896 215.475 137.769" fill="#fdd0a6"/>
  <circle cx="209.799" cy="77.169" r="64.33" fill="#fdd0a6"/>
  <circle cx="198.552" cy="101.423" r="5.499" fill="#e56857"/>
  <path d="m272.48,62.723c-6.559-28.569-32.122-49.884-62.682-49.884-11.697,0-22.655,3.138-32.107,8.594l-.02-.009-11.216,4.855c-6.936,3.003-14.789,3.085-21.786.229h0c-1.387-.566-2.792.771-2.294,2.184l.44,1.251c1.68,4.772,5.403,8.545,10.153,10.287h0c.583.214.494,1.066-.121,1.154l-2.011.289c-9.223,1.326-18.629-.292-26.879-4.623h0c-1.859-.976-3.964.798-3.317,2.795,3.93,12.142,13.794,21.384,26.095,24.582.366.095.727.204,1.097.288l9.261,2.109,78.308,10.931c6.81.951,11.09,7.843,8.923,14.369l-2.653,7.989c-.786,2.366.358,4.941,2.641,5.943h0c2.225.977,4.829.149,6.081-1.934l1.393-2.317c2.951-4.911,7.921-8.268,13.579-9.171l7.143-1.141c1.049-4.609,1.621-9.399,1.621-14.326,0-4.969-.582-9.8-1.649-14.446Z" fill="#5c4451"/>
  <circle cx="163.524" cy="82.135" r="29.267" fill="#fff" stroke="#231f20" stroke-miterlimit="10" stroke-width="5"/>
  <circle cx="223.083" cy="69.688" r="29.267" fill="#fff" stroke="#231f20" stroke-miterlimit="10" stroke-width="5"/>
  <line x1="249.002" y1="80.812" x2="279.282" y2="102.45" fill="none" stroke="#231f20" stroke-miterlimit="10" stroke-width="6"/>
  <circle cx="175.096" cy="83.172" r="5.625" fill="#231f20"/>
  <circle cx="230.349" cy="73.326" r="5.625" fill="#231f20"/>
  <circle cx="269.623" cy="105.306" r="17.273" fill="#fdd0a6"/>
  <path d="m279.282,105.306c0-5.334-4.324-9.659-9.659-9.659s-9.659,4.324-9.659,9.659" fill="none" stroke="#ae634b" stroke-linecap="round" stroke-miterlimit="10" stroke-width="3"/>
  <g>
    <path d="m192.911,118.15l-1.368-3.8-4.742,1.708c-1.25.45-1.78,1.928-1.101,3.07l2.201,3.703c9.349,15.728,32.968,7.932,32.121-9.418l-21.059,7.584c-2.457.885-5.167-.39-6.051-2.847Z" fill="#6f1811"/>
    <path d="m219.154,107.08c-.205-1.313-1.556-2.113-2.805-1.663l-24.806,8.933,1.368,3.8c.885,2.457,3.594,3.732,6.051,2.847l21.059-7.584c-.033-.68-.091-1.369-.202-2.077l-.665-4.257Z" fill="#fff"/>
  </g>
  <path d="m213.357,175.804l5.869-17.759c2.538-7.679,9.453-13.072,17.519-13.662h0c9.794-.717,17.861,7.582,16.869,17.352h0c-.9,8.857-8.111,15.743-17.001,16.232l-4.443.245.907-14.146c.253-3.94-4.868-5.678-7.066-2.399l-10.131,15.111c-.822,1.226-2.736.488-2.523-.972Z" fill="#a53332" stroke="#6c0f0f" stroke-miterlimit="10" stroke-width="3"/>
  <path d="m224.016,163.736h0c-3.56,26.167-22.906,47.419-48.624,53.416l-16.188,3.775c-3.974.927-3.301,6.776.78,6.776h23.285c29.979,0,53.53-25.665,50.96-55.533l-.705-8.199c-.49-5.69-8.739-5.894-9.508-.235Z" fill="#a53332" stroke="#6c0f0f" stroke-miterlimit="10" stroke-width="3"/>
  <path d="m167.312,221.821l-1.606-6.899c-.955-4.102-3.704-7.557-7.487-9.409h0c-3.562-1.743-7.695-1.896-11.376-.421l-6.478,2.597c-1.767.708-1.939,3.142-.29,4.093l22.951,13.219c.657.379,1.437.486,2.172.298h0c1.534-.391,2.473-1.937,2.114-3.479Z" fill="#fdd0a6"/>
  <g>
    <path d="m169.462,215.739l-26.102-6.395-14.365-35.855c-.24-.599-.754-1.045-1.381-1.198l-43.673-10.699c-.729-.18-1.494.067-1.986.631-.491.565-.625,1.359-.346,2.055l14.747,36.809c.012.03.032.054.045.083.044.097.094.19.153.279.029.044.061.085.094.126.059.075.122.144.191.21.038.036.074.071.114.104.079.064.164.12.253.172.038.022.073.048.113.068.131.065.269.12.417.157l70.774,17.339c.256.063.513.074.759.038.785-.112,1.46-.688,1.66-1.505.263-1.072-.394-2.155-1.466-2.418Z" fill="#443237"/>
    <path d="m126.03,176.616c-.24-.599-.754-1.045-1.381-1.198l-42.777-10.48,14.482,36.149c.012.03.032.054.045.083.044.097.094.19.153.279.029.044.061.085.094.126.059.075.122.144.191.21.038.036.074.071.114.104.079.064.164.12.253.172.038.022.073.048.113.068.131.065.269.12.417.157l42.777,10.48-14.483-36.149Z" fill="#826971"/>
    <ellipse cx="108.863" cy="187.567" rx="2.751" ry="6.605" transform="translate(-79.201 79.566) rotate(-30.002)" fill="#e6e7e8"/>
  </g>
  <g>
    <path d="m208.273,245.673l-67.72-34.557c-8.51-4.342-18.919-1.721-24.357,6.133l-41.607,60.089,18.417,8.951,33.923-48.992c3.052-4.407,8.892-5.878,13.667-3.441l43.448,22.171c9.128,4.658,20.305,1.034,24.963-8.094h0c.422-.826.094-1.838-.733-2.259Z" fill="#23344c"/>
    <path d="m93.004,286.29l-35.407-18.365c-6.093-3.16-13.582-.386-16.147,5.98h0c-2.245,5.573.117,11.94,5.454,14.699l27.282,14.105c3.348,1.731,7.462.665,9.548-2.474l9.269-13.944Z" fill="#929292"/>
    <path d="m83.529,300.524l-37.915-21.046c-1.588-.881-3.31-1.304-5.01-1.309" fill="none" stroke="#6e7877" stroke-miterlimit="10"/>
  </g>
</svg>