<?xml version="1.0" encoding="UTF-8"?>
<svg xmlns="http://www.w3.org/2000/svg" viewBox="0 0 1000 500">
  <g id="Layer_6" data-name="Layer 6">
    <line x1="354.941" y1="477.558" x2="354.941" y2="501.989" fill="none" stroke="#3c6571" stroke-linecap="round" stroke-miterlimit="10" stroke-width="3"/>
  </g>
  <g id="Layer_13" data-name="Layer 13">
    <g>
      <path d="m774.24,387.562l-22.217-14.992c-3.772-2.546-8.92-1.248-11.036,2.781l-9.869,18.798c-3.098,5.901-11.738,5.282-13.963-1.001l-2.611-7.374c-1.701-4.803-7.539-6.626-11.671-3.643l-3.651,2.635-38.895,65.132c-3.37,5.643,2.216,12.391,8.389,10.134l72.398-26.465c6.215-2.272,11.808,4.573,8.343,10.21l-35.194,57.271h179.439l-112.616-112.616c-2.119.78-4.603.642-6.847-.872Z" fill="#384359"/>
      <path d="m741.114,433.568l-72.398,26.465c-6.173,2.257-11.759-4.491-8.389-10.134l38.895-65.132-18.294,13.205c-5.677,4.098-13.417-.966-11.936-7.809l.463-2.138-113.025,113.025h157.834l35.194-57.271c3.464-5.638-2.129-12.482-8.343-10.21Z" fill="#665264"/>
      <path d="m723.191,344.63l-23.969,40.137,3.651-2.635c4.132-2.982,9.97-1.16,11.671,3.643l2.611,7.374c2.225,6.282,10.865,6.901,13.963,1.001l9.869-18.798c2.115-4.029,7.263-5.327,11.036-2.781l22.217,14.992c2.244,1.514,4.728,1.651,6.847.872l-35.28-35.28c-6.205-6.205-14.497-9.041-22.616-8.524Z" fill="#9e899c"/>
      <path d="m680.927,397.972l18.294-13.205,23.969-40.137c-6.87.437-13.616,3.274-18.866,8.524l-34.87,34.87-.463,2.138c-1.481,6.843,6.259,11.907,11.936,7.809Z" fill="#cea6c0"/>
    </g>
    <g>
      <path d="m233.11,374.237l-17.83-15.422c-8.946-7.738-22.872-1.71-23.353,10.109h0c-.594,14.579-20.209,18.797-26.743,5.751l-5.998-11.976c-5.567-11.114-21.739-10.138-25.928,1.566l-10.997,30.724c-3.906,10.914-16.888,11.828-23.492,5.165l-20.139,41.332c-3.511,7.206-14.395,4.208-13.72-3.78l2.61-30.922c.958-11.354-12.089-18.385-21.044-11.34l-163,128.222H405.46l-151.717-151.717c-4.559,6.099-13.879,8.129-20.633,2.287Z" fill="#384359"/>
      <path d="m98.769,400.154c6.604,6.663,19.586,5.749,23.492-5.165l10.997-30.724c4.189-11.703,20.362-12.68,25.928-1.566l5.998,11.976c6.534,13.046,26.149,8.828,26.743-5.751h0c.481-11.819,14.407-17.846,23.353-10.109l17.83,15.422c6.754,5.842,16.073,3.811,20.633-2.287l-94.961-94.961-60.013,123.165Z" fill="#9e899c"/>
      <path d="m67.52,406.784l-2.61,30.922c-.674,7.988,10.209,10.986,13.72,3.78l20.139-41.332c-2.268-2.288-3.787-5.464-3.923-9.442l-.874-25.534c-.38-11.1-12.832-17.44-22.032-11.216l-48.658,32.919c-8.366,5.66-18.157,1.03-21.179-6.682l-143.467,143.467h24.839L46.476,395.444c8.956-7.045,22.003-.015,21.044,11.34Z" fill="#665264"/>
      <path d="m23.283,386.881l48.658-32.919c9.199-6.224,21.652.115,22.032,11.216l.874,25.534c.136,3.978,1.656,7.154,3.923,9.442l60.013-123.165-2.622-2.622c-13.317-13.317-34.907-13.317-48.224,0L2.104,380.199c3.022,7.711,12.813,12.342,21.179,6.682Z" fill="#cea6c0"/>
    </g>
  </g>
</svg>