<?xml version="1.0" encoding="UTF-8"?>
<svg xmlns="http://www.w3.org/2000/svg" viewBox="0 0 1000 500">
  <g id="Layer_6" data-name="Layer 6">
    <line x1="354.941" y1="477.558" x2="354.941" y2="501.989" fill="none" stroke="#3c6571" stroke-linecap="round" stroke-miterlimit="10" stroke-width="3"/>
  </g>
  <g id="Layer_3_copy" data-name="Layer 3 copy">
    <g>
      <path d="m996.502,341.001l-27.998-12.014c-7.232-3.103-15.552.8-17.789,8.345l-3.298,11.127c-2.962,9.992-17.079,10.089-20.179.139l-12.398-39.8c-1.026-3.294-5.209-4.279-7.598-1.79l-26.185,27.283c-2.716,2.83-7.5,1.109-7.79-2.803l-.686-9.234c-.117-1.574-.977-2.804-2.141-3.517l-47.911,55.935c-3.51,4.098,1.249,10.02,6.006,7.473l60.427-32.351c4.235-2.267,8.599,2.79,5.736,6.647l-109.02,146.877h382.439l-160.089-160.089c-3.748.116-7.65-.564-11.527-2.227Z" fill="#384359"/>
      <path d="m888.963,349.793l-60.427,32.351c-4.758,2.547-9.517-3.374-6.006-7.473l47.911-55.935c-1.567-.96-3.687-.98-5.308.393l-32.011,27.1c-5.022,4.252-11.548,3.159-15.409-.697l-157.784,157.784h125.751l109.02-146.877c2.863-3.857-1.501-8.915-5.736-6.647Z" fill="#665264"/>
      <path d="m929.134,279.9c-21.002,5.28-39.932,16.933-54.103,33.478l-4.59,5.359c1.164.713,2.024,1.943,2.141,3.517l.686,9.234c.291,3.911,5.075,5.632,7.79,2.803l26.185-27.283c2.389-2.489,6.572-1.503,7.598,1.79l12.398,39.8c3.1,9.95,17.217,9.853,20.179-.139l3.298-11.127c2.237-7.545,10.557-11.448,17.789-8.345l27.998,12.014c3.877,1.664,7.778,2.343,11.527,2.227l-44.471-44.471c-9.81-9.81-21.81-16.083-34.424-18.857Z" fill="#9e899c"/>
      <path d="m833.121,346.23l32.011-27.1c1.622-1.373,3.742-1.353,5.308-.393l4.59-5.359c14.171-16.545,33.101-28.198,54.103-33.478-22.562-4.962-47.098,1.31-64.644,18.857l-46.777,46.777c3.86,3.856,10.387,4.948,15.409.697Z" fill="#cea6c0"/>
    </g>
    <g>
      <path d="m394.543,420.89l-28.327-14.844c-4.738-2.483-10.502.505-11.204,5.808l-2.491,18.831c-1.002,7.573-11.232,9.219-14.56,2.343l-15.041-31.083c-2.189-4.524-8.056-5.771-11.895-2.528l-14.295,12.072c-.096.081-.199.14-.297.216l-27.675,46.285c-1.978,3.308-7.069,1.61-6.666-2.223l5.178-49.191c.396-3.76-4.533-5.507-6.594-2.338l-73.773,113.458h319.864l-101.294-101.294c-1.376,4.097-6.12,7.009-10.932,4.487Z" fill="#384359"/>
      <path d="m267.272,406.576l-5.178,49.191c-.404,3.833,4.688,5.531,6.666,2.223l27.675-46.285c-5.004,3.854-12.367.328-12.367-6.096v-10.957c0-5.994-6.548-9.688-11.678-6.588l-19.976,12.069c-3.372,2.037-6.917,1.209-9.217-.947l-118.512,118.512h62.22l73.773-113.458c2.061-3.17,6.99-1.422,6.594,2.338Z" fill="#665264"/>
      <path d="m345.139,357.693c-14.933,7.253-27.618,18.743-36.311,33.281l-12.395,20.73c.098-.075.201-.134.297-.216l14.295-12.072c3.84-3.243,9.706-1.996,11.895,2.528l15.041,31.083c3.327,6.876,13.558,5.23,14.56-2.343l2.491-18.831c.701-5.303,6.465-8.291,11.204-5.808l28.327,14.844c4.813,2.522,9.557-.39,10.932-4.487l-51.678-51.678c-2.69-2.69-5.596-5.03-8.658-7.032Z" fill="#9e899c"/>
      <path d="m252.414,400.132l19.976-12.069c5.13-3.099,11.678.595,11.678,6.588v10.957c0,6.424,7.363,9.95,12.367,6.096l12.395-20.73c8.693-14.538,21.377-26.028,36.311-33.281-20.878-13.645-49.147-11.304-67.484,7.032l-34.46,34.46c2.3,2.156,5.845,2.984,9.217.947Z" fill="#cea6c0"/>
    </g>
  </g>
  <g id="Layer_8" data-name="Layer 8">
    <path d="m414.351,465.756l-11.565-38.552c-.415-1.382-2.371-1.382-2.786,0l-11.565,38.552h25.916Z" fill="#24313d"/>
    <path d="m428.527,478.374l-11.565-38.552c-.415-1.382-2.371-1.382-2.786,0l-11.565,38.552h25.916Z" fill="#24313d"/>
    <path d="m441.485,458.58l-11.565-38.552c-.415-1.382-2.371-1.382-2.786,0l-11.565,38.552h25.916Z" fill="#24313d"/>
    <path d="m454.443,478.686l-11.565-38.552c-.415-1.382-2.371-1.382-2.786,0l-11.565,38.552h25.916Z" fill="#24313d"/>
    <path d="m467.401,482.434l-11.565-38.552c-.415-1.382-2.371-1.382-2.786,0l-11.565,38.552h25.916Z" fill="#24313d"/>
    <path d="m480.359,498.795l-11.565-38.552c-.415-1.382-2.371-1.382-2.786,0l-11.565,38.552h25.916Z" fill="#24313d"/>
    <path d="m496.643,509.567l-11.565-38.552c-.415-1.382-2.371-1.382-2.786,0l-11.565,38.552h25.916Z" fill="#24313d"/>
    <path d="m381.505,488.892l-11.565-38.552c-.415-1.382-2.371-1.382-2.786,0l-11.565,38.552h25.916Z" fill="#24313d"/>
    <path d="m391.399,476.965l-11.565-38.552c-.415-1.382-2.371-1.382-2.786,0l-11.565,38.552h25.916Z" fill="#24313d"/>
    <path d="m401.96,482.554l-11.565-38.552c-.415-1.382-2.371-1.382-2.786,0l-11.565,38.552h25.916Z" fill="#24313d"/>
    <path d="m270.387,508.686l-11.565-38.552c-.415-1.382-2.371-1.382-2.786,0l-11.565,38.552h25.916Z" fill="#24313d"/>
    <path d="m283.345,520.204l-11.565-38.552c-.415-1.382-2.371-1.382-2.786,0l-11.565,38.552h25.916Z" fill="#24313d"/>
    <path d="m357.338,501.16l-11.565-38.552c-.415-1.382-2.371-1.382-2.786,0l-11.565,38.552h25.916Z" fill="#24313d"/>
    <path d="m366.945,509.001l-11.565-38.552c-.415-1.382-2.371-1.382-2.786,0l-11.565,38.552h25.916Z" fill="#24313d"/>
    <path d="m313.014,509.001l-11.565-38.552c-.415-1.382-2.371-1.382-2.786,0l-11.565,38.552h25.916Z" fill="#24313d"/>
    <path d="m325.972,518.589l-11.565-38.552c-.415-1.382-2.371-1.382-2.786,0l-11.565,38.552h25.916Z" fill="#24313d"/>
    <path d="m338.93,512.162l-11.565-38.552c-.415-1.382-2.371-1.382-2.786,0l-11.565,38.552h25.916Z" fill="#24313d"/>
    <path d="m912.086,460.191l-15.853-52.845c-.568-1.894-3.25-1.894-3.819,0l-15.853,52.845h35.524Z" fill="#24313d"/>
    <path d="m990.27,514.926l-15.853-52.845c-.568-1.894-3.25-1.894-3.819,0l-15.853,52.845h35.524Z" fill="#24313d"/>
    <path d="m964.958,495.166l-15.853-52.845c-.568-1.894-3.25-1.894-3.819,0l-15.853,52.845h35.524Z" fill="#24313d"/>
    <path d="m1008.032,492.338l-15.853-52.845c-.568-1.894-3.25-1.894-3.819,0l-15.853,52.845h35.524Z" fill="#24313d"/>
    <path d="m928.666,475.557l-15.853-52.845c-.568-1.894-3.25-1.894-3.819,0l-15.853,52.845h35.524Z" fill="#24313d"/>
    <path d="m945.188,499.622l-14.061-46.871c-.504-1.68-2.883-1.68-3.387,0l-14.061,46.871h31.509Z" fill="#24313d"/>
    <path d="m867.061,491.905l-15.853-52.845c-.568-1.894-3.25-1.894-3.819,0l-15.853,52.845h35.524Z" fill="#24313d"/>
    <path d="m880.624,505.789l-15.853-52.845c-.568-1.894-3.25-1.894-3.819,0l-15.853,52.845h35.524Z" fill="#24313d"/>
    <path d="m895.1,483.217l-15.853-52.845c-.568-1.894-3.25-1.894-3.819,0l-15.853,52.845h35.524Z" fill="#24313d"/>
    <path d="m714.745,519.038l-15.853-52.845c-.568-1.894-3.25-1.894-3.819,0l-15.853,52.845h35.524Z" fill="#24313d"/>
    <path d="m732.507,534.826l-15.853-52.845c-.568-1.894-3.25-1.894-3.819,0l-15.853,52.845h35.524Z" fill="#24313d"/>
    <path d="m821.757,513.158l-15.853-52.845c-.568-1.894-3.25-1.894-3.819,0l-15.853,52.845h35.524Z" fill="#24313d"/>
    <path d="m842.309,514.926l-15.853-52.845c-.568-1.894-3.25-1.894-3.819,0l-15.853,52.845h35.524Z" fill="#24313d"/>
    <path d="m775.446,487.793l-15.853-52.845c-.568-1.894-3.25-1.894-3.819,0l-15.853,52.845h35.524Z" fill="#24313d"/>
    <path d="m754.503,516.906l-15.853-52.845c-.568-1.894-3.25-1.894-3.819,0l-15.853,52.845h35.524Z" fill="#24313d"/>
    <path d="m786.233,504.834l-15.853-52.845c-.568-1.894-3.25-1.894-3.819,0l-15.853,52.845h35.524Z" fill="#24313d"/>
    <path d="m803.995,496.025l-15.853-52.845c-.568-1.894-3.25-1.894-3.819,0l-15.853,52.845h35.524Z" fill="#24313d"/>
    <polygon points="748.042 480.561 814.615 496.025 874.949 458.893 900.637 450.569 931.825 479.131 947.196 478.656 966.647 495.166 990.27 483.217 1023.136 483.217 1023.136 524.137 716.315 524.137 748.042 480.561" fill="#24313d"/>
    <polygon points="344.38 501.16 401.393 459.207 440.512 455.191 480.359 501.989 344.38 501.16" fill="#24313d"/>
  </g>
</svg>