<?xml version="1.0" encoding="UTF-8"?>
<svg id="arm" xmlns="http://www.w3.org/2000/svg" viewBox="0 0 167.231 94.198">
  <path d="m157.294,83.985s-44.134,5.553-68.422-4.525c-25.963-10.772-58.149-50.901-58.149-50.901,0,0,35.811,24.716,63.309,35.218,27.703,10.58,65.46,8.173,65.46,8.173l-2.198,12.036Z" fill="#a92a40"/>
  <path d="m30.723,28.559s35.811,24.716,63.309,35.218c27.703,10.58,65.46,8.173,65.46,8.173l-2.438,13.35" fill="none" stroke="#d33c3c" stroke-miterlimit="10" stroke-width="3"/>
  <g>
    <path d="m54.084,16.067c-1.867-.982-4.19-.216-5.33,1.559l-3.179,4.95c-.828,1.289-2.641,1.472-3.71.374h0c-.959-.986-1.572-2.256-1.745-3.621l-1.775-13.941c-.209-1.643-1.711-2.806-3.355-2.597-1.638.225-2.806,1.712-2.597,3.356l1.652,12.975c.085.665-.34,1.29-.989,1.456h0c-.514.131-1.057-.055-1.381-.475l-8.934-11.554c-.993-1.285-2.846-1.691-4.18-.766-1.424.987-1.714,2.951-.668,4.304l8.962,11.591c.293.379.28.911-.03,1.276h0c-.27.317-.707.437-1.101.301l-11.843-4.076c-1.618-.56-3.385.35-3.862,2.016-.446,1.561.535,3.183,2.07,3.712l11.646,4.008c.419.144.707.53.726.972h0c.024.543-.36,1.018-.896,1.11l-8.024,1.365-.012.002c-1.116.194-2.097.974-2.377,2.072-.598,2.347,1.331,4.191,3.394,3.841l8.749-1.489c.695-.118,1.409.037,1.992.434l2.053,1.397c3.578,2.435,8.088,3.056,12.191,1.681h0c2.208-.74,3.937-2.478,4.666-4.69h0c.541-1.64,1.287-3.206,2.22-4.659l7.179-11.176c1.258-1.958.593-4.599-1.513-5.707Z" fill="#fdd0a6"/>
    <path d="m42.735,26.475l-.91.449c-4.332,2.14-6.164,7.346-4.127,11.728h0" fill="none" stroke="#de7661" stroke-linecap="round" stroke-miterlimit="10" stroke-width="2"/>
  </g>
</svg>