<?xml version="1.0" encoding="UTF-8"?>
<svg id="arm" xmlns="http://www.w3.org/2000/svg" viewBox="0 0 167.231 94.198">
  <path d="m159.643,72.215l-8.313.188c-37.61.85-74.692-8.968-106.954-28.317l-4.352-2.61c-2.707-1.624-5.519,1.93-3.316,4.191l12.552,12.882c24.568,25.214,60.903,35.074,94.847,25.741l16.635-4.574c4.34-1.193,3.401-7.601-1.099-7.5Z" fill="#a53332"/>
  <path d="m47.849,18.131c-1.93-.852-4.195.07-5.211,1.919l-2.834,5.155c-.738,1.343-2.534,1.649-3.676.626h0c-1.024-.918-1.722-2.144-1.989-3.493l-2.723-13.787c-.321-1.625-1.899-2.682-3.525-2.361-1.618.336-2.683,1.9-2.362,3.525l2.535,12.832c.13.658-.251,1.31-.888,1.52h0c-.504.166-1.058.017-1.411-.379l-9.702-10.916c-1.079-1.214-2.955-1.493-4.223-.478-1.353,1.082-1.509,3.061-.373,4.339l9.733,10.951c.318.358.342.89.057,1.275h0c-.248.335-.675.484-1.077.376l-12.094-3.257c-1.653-.448-3.354.58-3.715,2.275-.338,1.588.751,3.139,2.318,3.562l11.893,3.203c.427.115.741.48.791.92h0c.061.54-.29,1.041-.818,1.168l-7.912,1.91-.011.003c-1.1.27-2.025,1.115-2.229,2.23-.437,2.382,1.614,4.091,3.649,3.6l8.627-2.083c.686-.166,1.409-.059,2.017.297l2.143,1.253c3.736,2.184,8.278,2.497,12.277.844h0c2.152-.889,3.759-2.742,4.335-4.998h0c.427-1.673,1.065-3.286,1.897-4.799l6.399-11.641c1.121-2.039.277-4.629-1.9-5.59Z" fill="#fdd0a6"/>
  <path d="m37.238,29.29l-.877.51c-4.176,2.431-5.648,7.75-3.316,11.982h0" fill="none" stroke="#ae634b" stroke-linecap="round" stroke-miterlimit="10" stroke-width="2"/>
</svg>