<?xml version="1.0" encoding="UTF-8"?>
<svg id="Layer_17" data-name="Layer 17" xmlns="http://www.w3.org/2000/svg" viewBox="0 0 1000 500">
  <path d="m95.024,503.665l-26.342-87.81c-.944-3.147-5.401-3.147-6.345,0l-26.342,87.81h59.029Z" fill="#1c242d"/>
  <path d="m182.551,518.403l-26.342-87.81c-.944-3.147-5.401-3.147-6.345,0l-26.342,87.81h59.029Z" fill="#1c242d"/>
  <path d="m211.836,524.104l-18.542-61.81c-.665-2.216-3.802-2.216-4.467,0l-18.542,61.81h41.551Z" fill="#1c242d"/>
  <path d="m120.045,526.451l-26.342-87.81c-.944-3.147-5.401-3.147-6.345,0l-26.342,87.81h59.029Z" fill="#1c242d"/>
  <path d="m147.381,553.108l-23.364-77.884c-.837-2.792-4.791-2.792-5.628,0l-23.364,77.884h52.357Z" fill="#1c242d"/>
  <path d="m72.885,518.403l-26.342-87.81c-.944-3.147-5.401-3.147-6.345,0l-26.342,87.81h59.029Z" fill="#1c242d"/>
  <path d="m56.377,514.029l-37.95-126.506c-1.36-4.534-7.781-4.534-9.142,0l-37.95,126.506H56.377Z" fill="#1c242d"/>
  <path d="m945.188,503.665l-33.882-112.944c-1.214-4.048-6.947-4.048-8.162,0l-33.882,112.944h75.925Z" fill="#1c242d"/>
  <path d="m1017.6,518.403l-32.799-109.336c-1.176-3.919-6.725-3.919-7.901,0l-32.799,109.336h73.499Z" fill="#1c242d"/>
  <path d="m963.319,516.118l-26.342-87.81c-.944-3.147-5.401-3.147-6.345,0l-26.342,87.81h59.029Z" fill="#1c242d"/>
  <path d="m772.705,535.155l-23.364-77.884c-.837-2.792-4.791-2.792-5.628,0l-23.364,77.884h52.357Z" fill="#1c242d"/>
  <path d="m794.649,547.683l-23.364-77.884c-.837-2.792-4.791-2.792-5.628,0l-23.364,77.884h52.357Z" fill="#1c242d"/>
  <path d="m893.464,518.403l-26.342-87.81c-.944-3.147-5.401-3.147-6.345,0l-26.342,87.81h59.029Z" fill="#1c242d"/>
  <path d="m858.662,545.514l-37.95-126.506c-1.36-4.534-7.781-4.534-9.142,0l-37.95,126.506h85.042Z" fill="#1c242d"/>
</svg>