<?xml version="1.0" encoding="UTF-8"?>
<svg id="david_upper" xmlns="http://www.w3.org/2000/svg" xmlns:xlink="http://www.w3.org/1999/xlink" viewBox="0 0 384 320">
  <defs>
    <clipPath id="clippath">
      <circle cx="213.302" cy="79.924" r="64.33" fill="none"/>
    </clipPath>
  </defs>
  <g>
    <path d="m217.015,157.543l-2.153,10.735c-3.947,19.686-13.958,37.642-28.628,51.351l-10.097,9.435,30.048,16.985c4.195,2.371,9.505,1.171,12.272-2.773h0c14.71-20.966,21.452-46.496,19.012-71.991l-2.114-22.089-18.34,8.348Z" fill="#a92a40"/>
    <path d="m217.015,157.543l-2.153,10.735c-3.947,19.686-13.958,37.642-28.628,51.351l-10.097,9.435" fill="none" stroke="#d33c3c" stroke-miterlimit="10" stroke-width="3"/>
    <path d="m237.469,171.284l-1.85-19.325c.29,3.146,1.295,31.35-6.751,54.157-7.28,20.635-18.929,29.313-25.852,38.142l3.168,1.791c4.195,2.371,9.505,1.171,12.272-2.773h0c14.71-20.966,21.452-46.496,19.012-71.991Z" fill="#7d2a43"/>
  </g>
  <path d="m235.414,150.33l-8.359-2.714c-2.74-.89-5.735-.509-8.165,1.038h0c-3.21,2.043-5.021,5.699-4.701,9.491l1.292,15.286c.21,2.49,3.471,3.277,4.795,1.157l15.139-24.258Z" fill="#a92a40" stroke="#d33c3c" stroke-miterlimit="10" stroke-width="3"/>
  <polygon points="221.566 137.231 222.445 160.005 233.859 155.493 228.807 135.931 221.566 137.231" fill="#eda483"/>
  <g>
    <path d="m216.627,175.279l5.506-16.661c2.381-7.204,8.868-12.263,16.435-12.817h0c9.188-.672,16.757,7.113,15.825,16.278h0c-.844,8.309-7.61,14.769-15.949,15.228l-1.653-7.146c-1.2-5.19-7.883-6.67-11.162-2.47l-6.637,8.5c-.771,1.15-2.567.458-2.367-.912Z" fill="#a92a40" stroke="#a92a40" stroke-miterlimit="10" stroke-width="3"/>
    <path d="m216.627,175.279l5.506-16.661c2.381-7.204,8.868-12.263,16.435-12.817h0" fill="none" stroke="#d33c3c" stroke-linecap="round" stroke-miterlimit="10" stroke-width="3"/>
    <path d="m255.886,162.231c.489-4.811-1.164-9.559-4.535-13.026-.956-.983-2.027-1.814-3.168-2.516-.076,3.059-.547,6.655-1.924,10.2-2.396,6.166-8.526,9.774-12.081,11.415.551.599.954,1.34,1.152,2.195l1.937,8.375,1.26-.069c9.134-.502,16.435-7.473,17.359-16.573Z" fill="#7d2a43"/>
  </g>
  <g clip-path="url(#clippath)">
    <rect x="122.735" y="-8.359" width="180.985" height="174.38" transform="translate(2.869 -7.365) rotate(1.992)" fill="#eda483"/>
    <circle cx="207.64" cy="79.847" r="61.324" fill="#fdd0a6"/>
  </g>
  <circle cx="201.219" cy="103.773" r="5.499" fill="#de7661"/>
  <g>
    <path d="m276.447,67.667c-5.561-28.78-30.369-50.971-60.909-52.033-11.69-.407-22.751,2.348-32.386,7.473l-.019-.009-11.378,4.462c-7.036,2.76-14.887,2.569-21.781-.529h0c-1.366-.614-2.817.674-2.369,2.103l.397,1.266c1.513,4.828,5.102,8.728,9.789,10.634h0c.576.234.457,1.082-.161,1.149l-2.02.219c-9.263,1.005-18.607-.939-26.702-5.554h0c-1.824-1.04-3.989.66-3.413,2.678,3.506,12.271,13.042,21.851,25.225,25.474.362.108.719.229,1.086.326l9.182,2.43,77.88,13.647c6.773,1.187,10.811,8.224,8.418,14.67l-2.929,7.892c-.867,2.337.186,4.95,2.432,6.031h0c2.19,1.054,4.821.317,6.145-1.721l1.472-2.267c3.12-4.805,8.204-7.987,13.89-8.694l7.178-.892c1.208-4.57,1.947-9.337,2.118-14.261.173-4.966-.241-9.814-1.146-14.494Z" fill="#5c4451" stroke="#5c4451" stroke-miterlimit="10" stroke-width="4"/>
    <path d="m157.629,42.183l-2.02.219c-9.263,1.005-18.607-.939-26.702-5.554h0" fill="none" stroke="#886261" stroke-linecap="round" stroke-miterlimit="10" stroke-width="4"/>
    <path d="m215.538,15.633c-11.69-.407-22.751,2.348-32.386,7.473l-.019-.009-11.378,4.462c-7.036,2.76-14.887,2.569-21.781-.529h0" fill="none" stroke="#886261" stroke-linecap="round" stroke-miterlimit="10" stroke-width="4"/>
  </g>
  <circle cx="166.883" cy="83.279" r="29.267" fill="#fff" stroke="#231f20" stroke-miterlimit="10" stroke-width="5"/>
  <circle cx="226.838" cy="72.91" r="29.267" fill="#fff" stroke="#231f20" stroke-miterlimit="10" stroke-width="5"/>
  <line x1="252.355" y1="84.929" x2="281.864" y2="107.606" fill="none" stroke="#231f20" stroke-miterlimit="10" stroke-width="6"/>
  <circle cx="272.112" cy="110.124" r="14.669" fill="#eda483" stroke="#eda483" stroke-miterlimit="10" stroke-width="3"/>
  <path d="m280.087,108.204c-1.06-4.405-5.49-7.116-9.895-6.055s-7.116,5.49-6.055,9.895" fill="none" stroke="#de7661" stroke-linecap="round" stroke-miterlimit="10" stroke-width="3"/>
  <g>
    <path d="m195,120.294l-1.235-3.845-4.799,1.542c-1.265.406-1.846,1.865-1.207,3.03l2.071,3.778c8.797,16.043,32.672,9.074,32.429-8.295l-21.31,6.847c-2.487.799-5.15-.569-5.949-3.056Z" fill="#6f1811"/>
    <path d="m221.612,110.143c-.159-1.319-1.481-2.166-2.746-1.759l-25.102,8.065,1.235,3.845c.799,2.486,3.462,3.855,5.949,3.056l21.31-6.847c-.01-.68-.044-1.371-.13-2.083l-.517-4.277Z" fill="#fff"/>
  </g>
  <g>
    <path d="m224.727,168.915h0c-3.419,25.132-22,45.544-46.701,51.304l-15.547,3.625c-3.817.89-3.171,6.508.749,6.508h22.365c28.793,0,51.413-24.65,48.945-53.337l-.678-7.875c-.47-5.465-8.393-5.661-9.132-.226Z" fill="#a92a40"/>
    <path d="m163.227,230.352h22.365c28.793,0,51.413-24.65,48.945-53.337l-.678-7.875c-.47-5.465-8.393-5.661-9.132-.226" fill="none" stroke="#7d2a43" stroke-miterlimit="10" stroke-width="3"/>
    <path d="m224.727,168.915h0c-3.419,25.132-22,45.544-46.701,51.304l-15.547,3.625" fill="none" stroke="#d33c3c" stroke-linecap="round" stroke-miterlimit="10" stroke-width="3"/>
  </g>
  <path d="m280.88,98.363c-3.372-2.511-7.794-3.562-12.201-2.501-7.877,1.896-12.725,9.818-10.829,17.695.237.985.568,1.922.982,2.804" fill="none" stroke="#fdd0a6" stroke-linecap="round" stroke-miterlimit="10" stroke-width="3"/>
  <path d="m167.312,223.296l-1.606-6.899c-.955-4.102-3.704-7.557-7.487-9.409h0c-3.562-1.743-7.695-1.896-11.376-.421l-6.478,2.597c-1.767.708-1.939,3.142-.29,4.093l22.951,13.219c.657.379,1.437.486,2.172.298h0c1.534-.391,2.473-1.937,2.114-3.479Z" fill="#fdd0a6"/>
</svg>