<?xml version="1.0" encoding="UTF-8"?>
<svg xmlns="http://www.w3.org/2000/svg" xmlns:xlink="http://www.w3.org/1999/xlink" viewBox="0 0 1000 500">
  <defs>
    <linearGradient id="linear-gradient" x1="794.649" y1="446.06" x2="794.649" y2="281.605" gradientUnits="userSpaceOnUse">
      <stop offset="0" stop-color="#ec6f8d"/>
      <stop offset="1" stop-color="#a5587f"/>
    </linearGradient>
    <linearGradient id="linear-gradient-2" x1="700.154" y1="443.149" x2="700.154" y2="245.165" xlink:href="#linear-gradient"/>
    <linearGradient id="linear-gradient-3" x1="938.203" y1="473.74" x2="938.203" y2="275.755" xlink:href="#linear-gradient"/>
    <linearGradient id="linear-gradient-4" x1="294.168" y1="431.159" x2="294.168" y2="252.494" gradientUnits="userSpaceOnUse">
      <stop offset="0" stop-color="#ec6f8d"/>
      <stop offset="1" stop-color="#a5587f"/>
    </linearGradient>
    <linearGradient id="linear-gradient-5" x1="43.37" y1="444.347" x2="43.37" y2="265.683" xlink:href="#linear-gradient-4"/>
    <linearGradient id="linear-gradient-6" x1="492.95" y1="453.631" x2="492.95" y2="337.302" xlink:href="#linear-gradient-4"/>
  </defs>
  <g id="Layer_6" data-name="Layer 6">
    <line x1="354.941" y1="477.558" x2="354.941" y2="501.989" fill="none" stroke="#3c6571" stroke-linecap="round" stroke-miterlimit="10" stroke-width="3"/>
  </g>
  <g id="Layer_10" data-name="Layer 10">
    <path d="m981.85,501.611l-171.333-171.333c-8.764-8.764-22.973-8.764-31.737,0l-171.333,171.333h374.403Z" fill="url(#linear-gradient)"/>
    <path d="m933.364,510.027l-200.722-200.722c-17.943-17.943-47.034-17.943-64.977,0l-200.722,200.722h466.42Z" fill="url(#linear-gradient-2)"/>
    <path d="m1171.413,540.617l-200.722-200.722c-17.943-17.943-47.034-17.943-64.977,0l-200.722,200.722h466.42Z" fill="url(#linear-gradient-3)"/>
    <path d="m526.452,500.069l-202.203-202.203c-16.614-16.614-43.549-16.614-60.163,0L61.884,500.069h464.569Z" fill="url(#linear-gradient-4)"/>
    <path d="m275.655,513.257l-202.203-202.203c-16.614-16.614-43.549-16.614-60.163,0l-202.203,202.203h464.569Z" fill="url(#linear-gradient-5)"/>
    <path d="m644.19,498.498l-131.654-131.654c-10.817-10.817-28.355-10.817-39.172,0l-131.654,131.654h302.48Z" fill="url(#linear-gradient-6)"/>
  </g>
</svg>