<?xml version="1.0" encoding="UTF-8"?>
<svg id="Layer_17" data-name="Layer 17" xmlns="http://www.w3.org/2000/svg" viewBox="0 0 1000 500">
  <g>
    <path d="m697.854,352.901h3.467v148.752h-6.549v-145.67c0-1.701,1.381-3.082,3.082-3.082Z" fill="#ab183a"/>
    <path d="m701.321,352.901h29.352c1.701,0,3.082,1.381,3.082,3.082v145.67h-32.434v-148.752h0Z" fill="#8a1538"/>
  </g>
  <g>
    <path d="m220.163,345.447h10.942v156.206h-12.051v-155.097c0-.612.497-1.109,1.109-1.109Z" fill="#ab183a"/>
    <path d="m231.105,345.447h20.21c.612,0,1.109.497,1.109,1.109v155.097h-21.319v-156.206h0Z" fill="#8a1538"/>
    <g>
      <path d="m216.517,349.573h13.576v152.08h-14.685v-150.971c0-.612.497-1.109,1.109-1.109Z" fill="#ab183a"/>
      <path d="m230.093,349.573h24.868c.612,0,1.109.497,1.109,1.109v150.971h-25.977v-152.08h0Z" fill="#8a1538"/>
    </g>
  </g>
  <g>
    <path d="m117.706,340.669h11.915v160.984h-13.024v-159.875c0-.612.497-1.109,1.109-1.109Z" fill="#8a1538"/>
    <path d="m129.621,340.669h21.931c.612,0,1.109.497,1.109,1.109v159.875h-23.04v-160.984h0Z" fill="#8a1538"/>
  </g>
  <g>
    <path d="m440.666,229.772h8.995v271.881h-16.106V236.883c0-3.925,3.186-7.111,7.111-7.111Z" fill="#ab183a"/>
    <path d="m449.661,229.772h27.871c3.925,0,7.111,3.186,7.111,7.111v264.77h-34.982V229.772h0Z" fill="#ab183a"/>
  </g>
  <g>
    <path d="m539.714,228.179h5.44v273.474h-6.549V229.288c0-.612.497-1.109,1.109-1.109Z" fill="#ab183a"/>
    <path d="m545.154,228.179h14.689c.612,0,1.109.497,1.109,1.109v272.365h-15.798V228.179h0Z" fill="#8a1538"/>
  </g>
  <g>
    <path d="m734.622,332.06h2.442v169.594h-6.549v-165.486c0-2.267,1.841-4.108,4.108-4.108Z" fill="#8a1538"/>
    <path d="m737.064,332.06h28.326c2.267,0,4.108,1.841,4.108,4.108v165.486h-32.434v-169.594h0Z" fill="#8a1538"/>
  </g>
  <g>
    <path d="m895.336,335.23h3.075v166.423h-8.027v-161.472c0-2.733,2.219-4.951,4.951-4.951Z" fill="#8a1538"/>
    <path d="m898.411,335.23h34.799c2.733,0,4.951,2.219,4.951,4.951v161.472h-39.75v-166.423h0Z" fill="#8a1538"/>
  </g>
  <g>
    <path d="m255.709,304.367h8.076v193.136h-9.185v-192.027c0-.612.497-1.109,1.109-1.109Z" fill="#ab183a"/>
    <path d="m263.785,304.367h15.139c.612,0,1.109.497,1.109,1.109v192.027h-16.248v-193.136h0Z" fill="#8a1538"/>
    <g>
      <path d="m252.93,309.361h10.083v193.136h-11.192v-192.027c0-.612.497-1.109,1.109-1.109Z" fill="#ab183a"/>
      <path d="m263.013,309.361h18.689c.612,0,1.109.497,1.109,1.109v192.027h-19.798v-193.136h0Z" fill="#8a1538"/>
    </g>
  </g>
  <g>
    <path d="m315.957,313.526h11.727v188.127h-12.836v-187.018c0-.612.497-1.109,1.109-1.109Z" fill="#ab183a"/>
    <path d="m327.685,313.526h21.598c.612,0,1.109.497,1.109,1.109v187.018h-22.707v-188.127h0Z" fill="#8a1538"/>
    <g>
      <path d="m312.074,319.994h14.532v181.659h-15.641v-180.55c0-.612.497-1.109,1.109-1.109Z" fill="#ab183a"/>
      <path d="m326.606,319.994h26.559c.612,0,1.109.497,1.109,1.109v180.55h-27.668v-181.659h0Z" fill="#8a1538"/>
    </g>
  </g>
  <g>
    <path d="m199.832,320.119h10.942v181.535h-12.051v-180.426c0-.612.497-1.109,1.109-1.109Z" fill="#ab183a"/>
    <path d="m210.774,320.119h20.21c.612,0,1.109.497,1.109,1.109v180.426h-21.319v-181.535h0Z" fill="#8a1538"/>
    <g>
      <path d="m196.186,326.574h13.576v175.079h-14.685v-173.97c0-.612.497-1.109,1.109-1.109Z" fill="#ab183a"/>
      <path d="m209.762,326.574h24.868c.612,0,1.109.497,1.109,1.109v173.97h-25.977v-175.079h0Z" fill="#8a1538"/>
    </g>
  </g>
  <g>
    <g>
      <path d="m515.415,155.901h2.248v134.391h-7.391v-129.249c0-2.838,2.304-5.143,5.143-5.143Z" fill="#ab183a" stroke="#ab183a" stroke-linecap="round" stroke-linejoin="round" stroke-width="4"/>
      <path d="m517.663,155.901h11.891c2.838,0,5.143,2.304,5.143,5.143v129.249h-17.033v-134.391h0Z" fill="#63143e" stroke="#63143e" stroke-linecap="round" stroke-linejoin="round" stroke-width="4"/>
      <path d="m516.53,159.63h2.821v131.877h-5.384v-129.314c0-1.414,1.148-2.563,2.563-2.563Z" fill="#8a1538" stroke="#8a1538" stroke-linecap="round" stroke-miterlimit="10" stroke-width="4"/>
      <path d="m510.272,290.293v-128.927c0-3.018,2.446-5.464,5.464-5.464h8.762" fill="none" stroke="#ab183a" stroke-linecap="round" stroke-linejoin="round" stroke-width="4"/>
    </g>
    <g>
      <path d="m509.934,179.521h5.565v194.706h-10.708v-189.564c0-2.838,2.304-5.143,5.143-5.143Z" fill="#ab183a" stroke="#ab183a" stroke-linecap="round" stroke-linejoin="round" stroke-width="4"/>
      <path d="m515.499,179.521h19.535c2.838,0,5.143,2.304,5.143,5.143v189.564h-24.678v-194.706h0Z" fill="#63143e" stroke="#63143e" stroke-linecap="round" stroke-linejoin="round" stroke-width="4"/>
      <path d="m513.942,183.601h4.13v191.064h-7.8v-187.394c0-2.026,1.644-3.67,3.67-3.67Z" fill="#8a1538" stroke="#8a1538" stroke-linecap="round" stroke-miterlimit="10" stroke-width="4"/>
      <path d="m504.791,374.228v-190.645c0-2.243,1.818-4.062,4.062-4.062h16.55" fill="none" stroke="#ab183a" stroke-linecap="round" stroke-linejoin="round" stroke-width="4"/>
    </g>
    <g>
      <path d="m505.226,214.356h8.415v246.519h-13.557v-241.377c0-2.838,2.304-5.143,5.143-5.143Z" fill="#ab183a" stroke="#ab183a" stroke-linecap="round" stroke-linejoin="round" stroke-width="4"/>
      <path d="m513.641,214.356h26.102c2.838,0,5.143,2.304,5.143,5.143v241.377h-31.245v-246.519h0Z" fill="#63143e" stroke="#63143e" stroke-linecap="round" stroke-linejoin="round" stroke-width="4"/>
      <path d="m513.259,217.99h6.205v241.907h-9.875v-238.237c0-2.026,1.644-3.67,3.67-3.67Z" fill="#8a1538" stroke="#8a1538" stroke-linecap="round" stroke-miterlimit="10" stroke-width="4"/>
      <line x1="505.226" y1="214.356" x2="526.18" y2="214.356" fill="none" stroke="#ab183a" stroke-linecap="round" stroke-linejoin="round" stroke-width="4"/>
    </g>
  </g>
  <g>
    <rect x="618.893" y="311.526" width="17.458" height="190.127" fill="#8a1538"/>
    <path d="m636.351,311.526l-6.56-9.379c-1.054-1.506-3.284-1.506-4.338,0l-6.56,9.379h17.458Z" fill="#8a1538"/>
  </g>
</svg>