<?xml version="1.0" encoding="UTF-8"?>
<svg xmlns="http://www.w3.org/2000/svg" viewBox="0 0 1000 500">
  <g id="Layer_28" data-name="Layer 28">
    <circle cx="126.786" cy="476.749" r="26.119" fill="#26242d"/>
    <circle cx="45.471" cy="507.428" r="26.119" fill="#26242d"/>
    <circle cx="722.25" cy="395.809" r="26.119" fill="#26242d"/>
    <circle cx="696.767" cy="408.578" r="19.95" fill="#26242d"/>
    <circle cx="616.56" cy="416.869" r="26.119" fill="#26242d"/>
    <circle cx="897.065" cy="324.3" r="26.119" fill="#26242d"/>
    <circle cx="156.938" cy="474.798" r="19.552" fill="#26242d"/>
    <circle cx="226.494" cy="442.194" r="19.552" fill="#26242d"/>
    <circle cx="351.423" cy="412.574" r="19.552" fill="#26242d"/>
    <circle cx="256.11" cy="440.02" r="19.552" fill="#26242d"/>
    <circle cx="203.252" cy="453.6" r="13.096" fill="#26242d"/>
    <path d="m363.895,328.958l15.342-2.75v68.958l27.255-4.885v17.455l-42.597,7.635v-86.413Z" fill="#7d666b" stroke="#7d666b" stroke-linejoin="round" stroke-width="3"/>
    <path d="m346.446,342.05v59.862l-15.252,16.009-14.891,2.669-.09.016-15.252-10.418v-59.985l15.342-15.902,14.801-2.653,15.342,10.402Zm-15.342,55.483v-45.112l-3.52-2.811-7.762,1.391-3.519,4.072v45.112l3.61,2.302,7.581-1.359,3.61-3.596Zm15.342,4.502v-59.985,59.985Z" fill="#7d666b" stroke="#7d666b" stroke-linejoin="round" stroke-width="3"/>
    <path d="m266.617,348.688l15.342-2.75v86.413l-15.342,2.75v-34.295l-14.801,2.653v34.295l-15.342,2.75v-86.413l15.342-2.75v34.663l14.801-2.653v-34.663Z" fill="#7d666b" stroke="#7d666b" stroke-linejoin="round" stroke-width="3"/>
    <path d="m-10.227,521.935l305.006-100.058c40.388-13.249,82.845-19.06,125.308-17.148l166.733,7.505c47.449,2.136,94.837-5.372,139.302-22.068l281.806-105.82v304.449H-10.227v-66.86Z" fill="#3a2934"/>
    <path d="m423.342,338.88l15.342-2.75v68.958l27.255-4.885v17.455l-42.597,7.635v-86.413Z" fill="#7d666b" stroke="#7d666b" stroke-linejoin="round" stroke-width="3"/>
    <path d="m504.578,350.039l15.343-2.75-15.072,64.038v25.076l-15.342,2.75v-25.321l-15.072-58.39,15.342-2.75,7.4,28.789,7.4-31.442Z" fill="#7d666b" stroke="#7d666b" stroke-linejoin="round" stroke-width="3"/>
    <path d="m585.52,357.069l-10.198,88.241-10.559,1.893-6.047-31.982-6.498,34.23-10.559,1.893-10.108-84.601,15.342-2.75,4.152,33.428,3.158-34.738,8.664-1.553,3.249,33.713,4.062-35.023,15.342-2.75Z" fill="#7d666b" stroke="#7d666b" stroke-linejoin="round" stroke-width="3"/>
    <path d="m645.405,367.251v59.862l-15.252,16.009-14.892,2.669-.09.016-15.252-10.418v-59.985l15.342-15.902,14.801-2.653,15.343,10.402Zm-15.343,55.484v-45.112l-3.52-2.811-7.761,1.391-3.52,4.072v45.112l3.611,2.302,7.581-1.359,3.61-3.596Zm15.343,4.502v-59.985,59.985Z" fill="#7d666b" stroke="#7d666b" stroke-linejoin="round" stroke-width="3"/>
    <path d="m712.11,368.752v59.862l-15.252,16.009-14.892,2.669-.09.016-15.252-10.418v-59.985l15.342-15.902,14.801-2.653,15.343,10.402Zm-15.343,55.484v-45.112l-3.52-2.811-7.761,1.391-3.52,4.072v45.112l3.611,2.302,7.581-1.359,3.61-3.596Zm15.343,4.502v-59.985,59.985Z" fill="#7d666b" stroke="#7d666b" stroke-linejoin="round" stroke-width="3"/>
    <path d="m766.017,336.967l15.342,10.525v59.862l-15.252,16.009-.09.016-30.143,5.403v-86.413l30.143-5.28v-.123Zm0,66.009v-45.112l-3.52-2.811-11.281,2.022v51.503l11.191-2.006,3.61-3.596Z" fill="#7d666b" stroke="#7d666b" stroke-linejoin="round" stroke-width="3"/>
    <path d="m193.494,487.541c-10.775,3.564-16.62,15.188-13.055,25.963l39.018-12.908c-3.564-10.775-15.188-16.62-25.963-13.055Z" fill="#26242d"/>
    <path d="m214.295,477.568c-8.438,2.791-13.016,11.895-10.224,20.333l30.557-10.109c-2.791-8.438-11.895-13.015-20.333-10.224Z" fill="#26242d"/>
    <path d="m233.792,448.942c-13.455,4.451-20.755,18.967-16.303,32.422l48.726-16.119c-4.451-13.455-18.967-20.754-32.422-16.303Z" fill="#26242d"/>
    <path d="m788.539,461.048c-24.341,8.052-37.546,34.312-29.494,58.653l88.147-29.16c-8.052-24.341-34.312-37.546-58.654-29.493Z" fill="#26242d"/>
    <path d="m838.411,478.649c-24.341,8.052-37.546,34.312-29.494,58.653l88.147-29.16c-8.052-24.341-34.312-37.546-58.654-29.493Z" fill="#26242d"/>
    <path d="m915.322,415.963c-24.341,8.052-37.546,34.312-29.494,58.653l88.147-29.16c-8.052-24.341-34.312-37.546-58.654-29.493Z" fill="#26242d"/>
    <path d="m855.48,404.583c-15.617,5.166-24.089,22.014-18.923,37.631l56.554-18.709c-5.166-15.617-22.014-24.089-37.631-18.923Z" fill="#26242d"/>
    <path d="m946.211,321.394c-15.617,5.166-24.089,22.014-18.923,37.631l56.554-18.709c-5.166-15.617-22.014-24.089-37.631-18.923Z" fill="#26242d"/>
    <path d="m861.489,321.961c-15.617,5.166-24.089,22.014-18.923,37.631l56.554-18.709c-5.166-15.617-22.014-24.089-37.631-18.923Z" fill="#26242d"/>
    <path d="m408.715,475.397c-12.176,4.028-18.782,17.164-14.754,29.341l44.095-14.587c-4.028-12.176-17.164-18.782-29.341-14.754Z" fill="#26242d"/>
    <path d="m444.738,468.071c-18.268,6.043-28.179,25.752-22.135,44.02l66.155-21.885c-6.043-18.268-25.752-28.178-44.02-22.135Z" fill="#26242d"/>
    <path d="m567.695,483.614c-18.268,6.043-28.179,25.752-22.135,44.02l66.155-21.885c-6.043-18.268-25.752-28.178-44.02-22.135Z" fill="#26242d"/>
    <path d="m312.115,413.844c-7.608,2.517-11.735,10.725-9.219,18.333l27.551-9.114c-2.517-7.608-10.725-11.735-18.333-9.219Z" fill="#26242d"/>
    <path d="m418.633,438.171c-7.608,2.517-11.735,10.725-9.219,18.333l27.551-9.114c-2.517-7.608-10.725-11.735-18.333-9.219Z" fill="#26242d"/>
    <path d="m445.497,419.88c-5.993,1.983-9.244,8.448-7.261,14.441l21.702-7.179c-1.982-5.993-8.448-9.244-14.441-7.261Z" fill="#26242d"/>
    <path d="m281.394,474.037c-10.775,3.564-16.62,15.188-13.055,25.963l39.018-12.908c-3.564-10.775-15.188-16.62-25.963-13.055Z" fill="#26242d"/>
    <path d="m305.141,454.237c-10.775,3.564-16.62,15.188-13.055,25.963l39.018-12.908c-3.564-10.775-15.188-16.62-25.963-13.055Z" fill="#26242d"/>
  </g>
  <g id="Layer_30" data-name="Layer 30">
    <path d="m363.895,328.958l15.342-2.75v68.958l27.255-4.885" fill="none" stroke="#c59b86" stroke-linecap="round" stroke-linejoin="round" stroke-width="3"/>
    <path d="m300.961,350.203l15.342-15.902,14.801-2.653,15.342,10.402v43.954m-30.143-30.93v45.112l3.61,2.302m26.533-60.439" fill="none" stroke="#c59b86" stroke-linecap="round" stroke-linejoin="round" stroke-width="3"/>
    <path d="m266.617,348.688l15.342-2.75v61.797m-45.485-53.644l15.342-2.75v34.663" fill="none" stroke="#c59b86" stroke-linecap="round" stroke-linejoin="round" stroke-width="3"/>
    <path d="m423.342,338.88l15.342-2.75v68.958l27.255-4.885" fill="none" stroke="#c59b86" stroke-linecap="round" stroke-linejoin="round" stroke-width="3"/>
    <path d="m474.435,355.442l15.342-2.75,7.4,28.789,7.4-31.442,15.343-2.75-15.072,64.038" fill="none" stroke="#c59b86" stroke-linecap="round" stroke-linejoin="round" stroke-width="3"/>
    <path d="m570.179,359.819l15.342-2.75-5.595,48.414m-25.721-42.801l8.664-1.553,3.249,33.713m-34.565-28.099l15.342-2.75,4.152,33.428" fill="none" stroke="#c59b86" stroke-linecap="round" stroke-linejoin="round" stroke-width="3"/>
    <path d="m599.92,375.404l15.342-15.902,14.801-2.653,15.343,10.402v31.432m-30.143-18.408v45.112l3.611,2.302m26.533-28.883v-31.555,31.555Z" fill="none" stroke="#c59b86" stroke-linecap="round" stroke-linejoin="round" stroke-width="3"/>
    <path d="m666.625,376.905l15.342-15.902,14.801-2.653,15.343,10.402v39.764m-30.143-26.74v45.112l3.611,2.302m26.533-20.551v-39.887,39.887Z" fill="none" stroke="#c59b86" stroke-linecap="round" stroke-linejoin="round" stroke-width="3"/>
    <path d="m735.874,342.37l30.143-5.28v-.123l15.342,10.525v35.941m-30.142-26.358v51.503l11.191-2.006,3.61-3.596" fill="none" stroke="#c59b86" stroke-linecap="round" stroke-linejoin="round" stroke-width="3"/>
  </g>
</svg>