<?xml version="1.0" encoding="UTF-8"?>
<svg id="Layer_17" data-name="Layer 17" xmlns="http://www.w3.org/2000/svg" xmlns:xlink="http://www.w3.org/1999/xlink" viewBox="0 0 1000 500">
  <defs>
    <linearGradient id="New_Gradient_Swatch" data-name="New Gradient Swatch" x1="515.583" y1="210.751" x2="510.702" y2="210.751" gradientUnits="userSpaceOnUse">
      <stop offset="0" stop-color="#7a2345"/>
      <stop offset=".653" stop-color="#a32a44"/>
      <stop offset="1" stop-color="#bc2f44"/>
    </linearGradient>
    <linearGradient id="linear-gradient" x1="516.928" y1="235.201" x2="509.861" y2="235.201" gradientUnits="userSpaceOnUse">
      <stop offset="0" stop-color="#7a2345"/>
      <stop offset=".653" stop-color="#a32a44"/>
      <stop offset="1" stop-color="#bc2f44"/>
    </linearGradient>
    <linearGradient id="New_Gradient_Swatch-2" data-name="New Gradient Swatch" x1="521.588" y1="358.465" x2="508.619" y2="358.465" xlink:href="#New_Gradient_Swatch"/>
  </defs>
  <g>
    <path d="m697.854,352.901h3.467v148.752h-6.549v-145.67c0-1.701,1.381-3.082,3.082-3.082Z" fill="#bc2f44"/>
    <path d="m701.321,352.901h29.352c1.701,0,3.082,1.381,3.082,3.082v145.67h-32.434v-148.752h0Z" fill="#9e2347"/>
  </g>
  <g>
    <path d="m220.163,345.447h10.942v156.206h-12.051v-155.097c0-.612.497-1.109,1.109-1.109Z" fill="#bc2f44"/>
    <path d="m231.105,345.447h20.21c.612,0,1.109.497,1.109,1.109v155.097h-21.319v-156.206h0Z" fill="#9e2347"/>
    <g>
      <path d="m216.517,349.573h13.576v152.08h-14.685v-150.971c0-.612.497-1.109,1.109-1.109Z" fill="#bc2f44"/>
      <path d="m230.093,349.573h24.868c.612,0,1.109.497,1.109,1.109v150.971h-25.977v-152.08h0Z" fill="#9e2347"/>
    </g>
  </g>
  <g>
    <path d="m117.706,340.669h11.915v160.984h-13.024v-159.875c0-.612.497-1.109,1.109-1.109Z" fill="#9e2347"/>
    <path d="m129.621,340.669h21.931c.612,0,1.109.497,1.109,1.109v159.875h-23.04v-160.984h0Z" fill="#9e2347"/>
  </g>
  <g>
    <path d="m430.594,229.772h8.995v271.881h-16.106V236.883c0-3.925,3.186-7.111,7.111-7.111Z" fill="#bc2f44"/>
    <path d="m439.589,229.772h27.871c3.925,0,7.111,3.186,7.111,7.111v264.77h-34.982V229.772h0Z" fill="#9e2347"/>
  </g>
  <g>
    <path d="m539.714,228.179h5.44v273.474h-6.549V229.288c0-.612.497-1.109,1.109-1.109Z" fill="#bc2f44"/>
    <path d="m545.154,228.179h14.689c.612,0,1.109.497,1.109,1.109v272.365h-15.798V228.179h0Z" fill="#9e2347"/>
  </g>
  <g>
    <path d="m733.596,332.06h3.467v169.594h-6.549v-166.511c0-1.701,1.381-3.082,3.082-3.082Z" fill="#9e2347"/>
    <path d="m737.064,332.06h29.352c1.701,0,3.082,1.381,3.082,3.082v166.511h-32.434v-169.594h0Z" fill="#9e2347"/>
  </g>
  <g>
    <path d="m891.494,335.23h6.918v166.423h-8.027v-165.314c0-.612.497-1.109,1.109-1.109Z" fill="#9e2347"/>
    <path d="m898.411,335.23h38.641c.612,0,1.109.497,1.109,1.109v165.314h-39.75v-166.423h0Z" fill="#9e2347"/>
  </g>
  <g>
    <path d="m255.709,304.367h8.076v193.136h-9.185v-192.027c0-.612.497-1.109,1.109-1.109Z" fill="#bc2f44"/>
    <path d="m263.785,304.367h15.139c.612,0,1.109.497,1.109,1.109v192.027h-16.248v-193.136h0Z" fill="#9e2347"/>
    <g>
      <path d="m252.93,309.361h10.083v193.136h-11.192v-192.027c0-.612.497-1.109,1.109-1.109Z" fill="#bc2f44"/>
      <path d="m263.013,309.361h18.689c.612,0,1.109.497,1.109,1.109v192.027h-19.798v-193.136h0Z" fill="#9e2347"/>
    </g>
  </g>
  <g>
    <path d="m315.957,313.526h11.727v188.127h-12.836v-187.018c0-.612.497-1.109,1.109-1.109Z" fill="#bc2f44"/>
    <path d="m327.685,313.526h21.598c.612,0,1.109.497,1.109,1.109v187.018h-22.707v-188.127h0Z" fill="#9e2347"/>
    <g>
      <path d="m312.074,319.994h14.532v181.659h-15.641v-180.55c0-.612.497-1.109,1.109-1.109Z" fill="#bc2f44"/>
      <path d="m326.606,319.994h26.559c.612,0,1.109.497,1.109,1.109v180.55h-27.668v-181.659h0Z" fill="#9e2347"/>
    </g>
  </g>
  <g>
    <path d="m199.832,320.119h10.942v181.535h-12.051v-180.426c0-.612.497-1.109,1.109-1.109Z" fill="#bc2f44"/>
    <path d="m210.774,320.119h20.21c.612,0,1.109.497,1.109,1.109v180.426h-21.319v-181.535h0Z" fill="#9e2347"/>
    <g>
      <path d="m196.186,326.574h13.576v175.079h-14.685v-173.97c0-.612.497-1.109,1.109-1.109Z" fill="#bc2f44"/>
      <path d="m209.762,326.574h24.868c.612,0,1.109.497,1.109,1.109v173.97h-25.977v-175.079h0Z" fill="#9e2347"/>
    </g>
  </g>
  <g>
    <path d="m508.382,152.058h21.89c1.092,0,1.978.886,1.978,1.978v115.406h-25.846v-115.406c0-1.092.886-1.978,1.978-1.978Z" fill="url(#New_Gradient_Swatch)"/>
    <path d="m504.747,176.509h29.159c1.092,0,1.978.886,1.978,1.978v115.406h-33.116v-115.406c0-1.092.886-1.978,1.978-1.978Z" fill="url(#linear-gradient)"/>
    <path d="m500.305,215.278h38.044c1.092,0,1.978.886,1.978,1.978v284.397h-42V217.256c0-1.092.886-1.978,1.978-1.978Z" fill="url(#New_Gradient_Swatch-2)"/>
  </g>
  <g>
    <rect x="618.893" y="311.526" width="17.458" height="190.127" fill="#9e2347"/>
    <polygon points="636.351 311.526 627.622 299.046 618.893 311.526 636.351 311.526" fill="#9e2347"/>
  </g>
</svg>