<?xml version="1.0" encoding="UTF-8"?>
<svg id="Layer_19" data-name="Layer 19" xmlns="http://www.w3.org/2000/svg" xmlns:xlink="http://www.w3.org/1999/xlink" viewBox="0 0 1000 500">
  <defs>
    <linearGradient id="New_Gradient_Swatch" data-name="New Gradient Swatch" x1="385.064" y1="323.183" x2="385.064" y2="273.303" gradientUnits="userSpaceOnUse">
      <stop offset="0" stop-color="#7a2345"/>
      <stop offset=".653" stop-color="#a32a44"/>
      <stop offset="1" stop-color="#bc2f44"/>
    </linearGradient>
    <linearGradient id="New_Gradient_Swatch-2" data-name="New Gradient Swatch" x1="533.691" y1="366.911" x2="533.691" y2="293.534" xlink:href="#New_Gradient_Swatch"/>
    <linearGradient id="New_Gradient_Swatch-3" data-name="New Gradient Swatch" x1="591.545" y1="359.104" x2="591.545" y2="245.37" gradientTransform="translate(1183.089 752.746) rotate(-180)" xlink:href="#New_Gradient_Swatch"/>
    <linearGradient id="New_Gradient_Swatch-4" data-name="New Gradient Swatch" x1="249.77" y1="569.483" x2="249.77" y2="337.271" xlink:href="#New_Gradient_Swatch"/>
  </defs>
  <g>
    <g>
      <path d="m385.136,260.386h9.961v62.239h-11.07v-61.13c0-.612.497-1.109,1.109-1.109Z" fill="#bc2f44"/>
      <path d="m395.097,260.386h9.961c.612,0,1.109.497,1.109,1.109v61.13h-11.07v-62.239h0Z" fill="#872143"/>
    </g>
    <g>
      <path d="m382.268,264.496h12.829v62.239h-13.938v-61.13c0-.612.497-1.109,1.109-1.109Z" fill="#bc2f44"/>
      <path d="m395.097,264.496h12.829c.612,0,1.109.497,1.109,1.109v61.13h-13.938v-62.239h0Z" fill="#872143"/>
    </g>
    <g>
      <path d="m379.609,267.598h15.487v62.239h-16.596v-61.13c0-.612.497-1.109,1.109-1.109Z" fill="#bc2f44"/>
      <path d="m395.097,267.598h15.487c.612,0,1.109.497,1.109,1.109v61.13h-16.596v-62.239h0Z" fill="#872143"/>
    </g>
    <g>
      <path d="m376.139,273.307h18.957v228.346h-20.066v-227.238c0-.612.497-1.109,1.109-1.109Z" fill="url(#New_Gradient_Swatch)"/>
      <path d="m395.097,273.307h18.957c.612,0,1.109.497,1.109,1.109v227.238h-20.066v-228.346h0Z" fill="#872143"/>
    </g>
  </g>
  <g>
    <path d="m531.692,308.268h12.141v193.385h-20.285v-185.242c0-4.495,3.649-8.144,8.144-8.144Z" fill="url(#New_Gradient_Swatch-2)"/>
    <path d="m543.833,308.268h17.405c4.495,0,8.144,3.649,8.144,8.144v185.242h-25.548v-193.385h0Z" fill="#7a2345"/>
  </g>
  <g>
    <path d="m635.318,316.402h10.396v185.251h-11.505v-184.142c0-.612.497-1.109,1.109-1.109Z" fill="#bc2f44"/>
    <path d="m645.714,316.402h18.264c.612,0,1.109.497,1.109,1.109v184.142h-19.373v-185.251h0Z" fill="#872143"/>
  </g>
  <g>
    <g>
      <path d="m604.124,241.134h12.662v260.519h-8.919c-2.066,0-3.743-1.677-3.743-3.743V241.134h0Z" transform="translate(1220.911 742.787) rotate(180)" fill="#872143"/>
      <path d="m582.803,241.134h21.321v256.776c0,2.066-1.677,3.743-3.743,3.743h-17.578V241.134h0Z" transform="translate(1186.927 742.787) rotate(180)" fill="#bc2f44"/>
    </g>
    <path d="m605.436,251.093h16.5v250.56h-12.757c-2.066,0-3.743-1.677-3.743-3.743v-246.817h0Z" transform="translate(1227.373 752.746) rotate(180)" fill="#872143"/>
    <path d="m577.653,251.093h27.783v246.817c0,2.066-1.677,3.743-3.743,3.743h-24.04v-250.56h0Z" transform="translate(1183.089 752.746) rotate(180)" fill="url(#New_Gradient_Swatch-3)"/>
  </g>
  <g>
    <path d="m295.75,276.875h17.64c.612,0,1.109.497,1.109,1.109v223.67h-19.858v-223.67c0-.612.497-1.109,1.109-1.109Z" fill="#872143"/>
    <path d="m287.802,280.091h16.538v221.562h-17.647v-220.453c0-.612.497-1.109,1.109-1.109Z" fill="#bc2f44"/>
    <path d="m304.339,280.091h16.538c.612,0,1.109.497,1.109,1.109v220.453h-17.647v-221.562h0Z" fill="#872143"/>
  </g>
  <g>
    <path d="m244.853,326.629h10.943v175.024h-12.051v-173.915c0-.612.497-1.109,1.109-1.109Z" fill="url(#New_Gradient_Swatch-4)"/>
    <path d="m255.796,326.629h28.426c.612,0,1.109.497,1.109,1.109v173.915h-29.535v-175.024h0Z" fill="#872143"/>
  </g>
  <g>
    <path d="m135.737,332.663h11.915v168.991h-13.024v-167.882c0-.612.497-1.109,1.109-1.109Z" fill="#bc2f44"/>
    <path d="m147.653,332.663h21.931c.612,0,1.109.497,1.109,1.109v167.882h-23.04v-168.991h0Z" fill="#872143"/>
  </g>
  <g>
    <path d="m795.083,263.341h30.266c3.208,0,5.813,2.605,5.813,5.813v225.807h-41.893v-225.807c0-3.208,2.605-5.813,5.813-5.813Z" fill="#872143"/>
    <path d="m783.557,274.483h18.067v227.17h-23.903v-221.333c0-3.221,2.615-5.836,5.836-5.836Z" fill="#872143"/>
    <path d="m801.624,274.483h34.413c3.221,0,5.836,2.615,5.836,5.836v221.333h-40.249v-227.17h0Z" fill="#872143"/>
  </g>
</svg>