<?xml version="1.0" encoding="UTF-8"?>
<svg id="Layer_19" data-name="Layer 19" xmlns="http://www.w3.org/2000/svg" xmlns:xlink="http://www.w3.org/1999/xlink" viewBox="0 0 1000 500">
  <defs>
    <linearGradient id="New_Gradient_Swatch" data-name="New Gradient Swatch" x1="382.872" y1="376.345" x2="382.872" y2="283.875" gradientUnits="userSpaceOnUse">
      <stop offset="0" stop-color="#63143e"/>
      <stop offset=".601" stop-color="#8c163b"/>
      <stop offset="1" stop-color="#ab183a"/>
    </linearGradient>
    <linearGradient id="New_Gradient_Swatch-2" data-name="New Gradient Swatch" x1="591.545" y1="465.68" x2="591.545" y2="299.411" gradientTransform="translate(1183.089 752.746) rotate(-180)" xlink:href="#New_Gradient_Swatch"/>
    <linearGradient id="New_Gradient_Swatch-3" data-name="New Gradient Swatch" x1="249.77" y1="569.483" x2="249.77" y2="337.271" xlink:href="#New_Gradient_Swatch"/>
    <linearGradient id="New_Gradient_Swatch-4" data-name="New Gradient Swatch" x1="562.342" y1="325.759" x2="562.342" y2="251.373" gradientTransform="translate(1124.684 725.405) rotate(-180)" xlink:href="#New_Gradient_Swatch"/>
  </defs>
  <g>
    <g>
      <path d="m384.217,260.386h8.688v62.239h-11.07v-59.857c0-1.315,1.067-2.382,2.382-2.382Z" fill="#ab183a"/>
      <path d="m392.905,260.386h8.688c1.315,0,2.382,1.067,2.382,2.382v59.857h-11.07v-62.239h0Z" fill="#8a0f3c"/>
    </g>
    <g>
      <path d="m381.349,264.496h11.556v62.239h-13.938v-59.857c0-1.315,1.067-2.382,2.382-2.382Z" fill="#ab183a"/>
      <path d="m392.905,264.496h11.556c1.315,0,2.382,1.067,2.382,2.382v59.857h-13.938v-62.239h0Z" fill="#8a0f3c"/>
    </g>
    <g>
      <path d="m378.691,267.598h14.214v62.239h-16.596v-59.857c0-1.315,1.067-2.382,2.382-2.382Z" fill="#ab183a"/>
      <path d="m392.905,267.598h14.214c1.315,0,2.382,1.067,2.382,2.382v59.857h-16.596v-62.239h0Z" fill="#8a0f3c"/>
    </g>
    <g>
      <path d="m375.221,273.307h17.685v228.346h-20.066v-225.965c0-1.315,1.067-2.382,2.382-2.382Z" fill="url(#New_Gradient_Swatch)"/>
      <path d="m392.905,273.307h17.685c1.315,0,2.382,1.067,2.382,2.382v225.965h-20.066v-228.346h0Z" fill="#8a0f3c"/>
    </g>
  </g>
  <g>
    <path d="m639.21,316.402h6.504v185.251h-11.505v-180.25c0-2.76,2.241-5.001,5.001-5.001Z" fill="#ab183a"/>
    <path d="m645.714,316.402h14.372c2.76,0,5.001,2.241,5.001,5.001v180.25h-19.373v-185.251h0Z" fill="#8a0f3c"/>
  </g>
  <g>
    <g>
      <path d="m604.124,241.134h12.662v260.519h-8.919c-2.066,0-3.743-1.677-3.743-3.743V241.134h0Z" transform="translate(1220.911 742.787) rotate(180)" fill="#8a0f3c"/>
      <path d="m582.803,241.134h21.321v256.776c0,2.066-1.677,3.743-3.743,3.743h-17.578V241.134h0Z" transform="translate(1186.927 742.787) rotate(180)" fill="#ab183a"/>
    </g>
    <path d="m605.436,251.093h16.5v250.56h-12.757c-2.066,0-3.743-1.677-3.743-3.743v-246.817h0Z" transform="translate(1227.373 752.746) rotate(180)" fill="#8a0f3c"/>
    <path d="m577.653,251.093h27.783v246.817c0,2.066-1.677,3.743-3.743,3.743h-24.04v-250.56h0Z" transform="translate(1183.089 752.746) rotate(180)" fill="url(#New_Gradient_Swatch-2)"/>
  </g>
  <g>
    <path d="m295.75,276.875h17.64c.612,0,1.109.497,1.109,1.109v223.67h-19.858v-223.67c0-.612.497-1.109,1.109-1.109Z" fill="#8a0f3c"/>
    <path d="m287.802,280.091h16.538v221.562h-17.647v-220.453c0-.612.497-1.109,1.109-1.109Z" fill="#ab183a"/>
    <path d="m304.339,280.091h16.538c.612,0,1.109.497,1.109,1.109v220.453h-17.647v-221.562h0Z" fill="#8a0f3c"/>
  </g>
  <g>
    <path d="m244.853,326.629h10.943v175.024h-12.051v-173.915c0-.612.497-1.109,1.109-1.109Z" fill="url(#New_Gradient_Swatch-3)"/>
    <path d="m255.796,326.629h28.426c.612,0,1.109.497,1.109,1.109v173.915h-29.535v-175.024h0Z" fill="#8a0f3c"/>
  </g>
  <g>
    <path d="m135.737,332.663h11.915v168.991h-13.024v-167.882c0-.612.497-1.109,1.109-1.109Z" fill="#ab183a"/>
    <path d="m147.653,332.663h21.931c.612,0,1.109.497,1.109,1.109v167.882h-23.04v-168.991h0Z" fill="#8a0f3c"/>
  </g>
  <g>
    <path d="m568.076,219.842h14.578c2.42,0,4.384,1.965,4.384,4.384v281.336h-18.962V219.842h0Z" fill="#63143e" stroke="#63143e" stroke-miterlimit="10" stroke-width="3"/>
    <path d="m556.608,219.842h11.469v281.336c0,2.42-1.965,4.384-4.384,4.384h-7.085V219.842h0Z" transform="translate(1124.684 725.405) rotate(180)" fill="url(#New_Gradient_Swatch-4)"/>
    <path d="m579.389,219.842h-18.398c-2.421,0-4.384,1.963-4.384,4.384v281.336" fill="none" stroke="#ab183a" stroke-linecap="round" stroke-miterlimit="10" stroke-width="3"/>
  </g>
</svg>