<?xml version="1.0" encoding="UTF-8"?>
<svg id="Layer_27" data-name="Layer 27" xmlns="http://www.w3.org/2000/svg" viewBox="0 0 1000 500">
  <circle cx="51.115" cy="357.069" r="20.426" fill="#5b313c"/>
  <circle cx="340.053" cy="294.832" r="20.426" fill="#5b313c"/>
  <circle cx="796.508" cy="248.384" r="15.969" fill="#5b313c"/>
  <circle cx="821.197" cy="232.415" r="20.426" fill="#5b313c"/>
  <circle cx="841.624" cy="240.809" r="20.426" fill="#5b313c"/>
  <circle cx="663.701" cy="280.983" r="20.426" fill="#5b313c"/>
  <circle cx="688.341" cy="278.034" r="16.798" fill="#5b313c"/>
  <circle cx="776.081" cy="257.607" r="20.426" fill="#5b313c"/>
  <circle cx="364.655" cy="298.519" r="20.426" fill="#5b313c"/>
  <circle cx="315.855" cy="311.559" r="20.426" fill="#5b313c"/>
  <circle cx="80.453" cy="367.909" r="25.859" fill="#5b313c"/>
  <circle cy="376.313" r="25.859" fill="#5b313c"/>
  <circle cx="25.859" cy="374.205" r="17.143" fill="#5b313c"/>
  <path d="m1020.839,641.624V190.59l-406.125,99.141c-23.263,5.679-47.616,5.082-70.572-1.729l-16.388-4.862c-41.26-12.241-85.03-13.314-126.84-3.107L-130.6,409.783v228.746l1151.439,3.095Z" fill="#93413c"/>
  <path d="m-56.543,410.021l406.046-102.141c5.702-1.434,9.847,5.341,5.974,9.765l-27.991,31.97c-10.058,11.488.487,29.13,15.368,25.711l406.854-93.473c5.485-1.26,9.191,5.453,5.202,9.423l-41.542,41.343c-6.499,6.468.718,17.152,9.141,13.531,101.361-43.576,360.067-154.963,357.462-155.561-3.238-.744,0,384.571,0,384.571H-52.226l-4.317-165.139Z" fill="#5b313c"/>
  <path d="m6.86,369.46c-15.874,5.251-24.518,22.276-19.308,38.026l57.483-19.016c-5.21-15.75-22.302-24.261-38.176-19.01Z" fill="#5b313c"/>
  <path d="m34.213,377.107c-15.874,5.251-24.518,22.276-19.308,38.026l57.483-19.016c-5.21-15.75-22.302-24.261-38.176-19.01Z" fill="#5b313c"/>
  <path d="m581.55,303.552c-10.523,3.481-16.231,14.834-12.75,25.356l38.107-12.606c-3.481-10.523-14.834-16.231-25.357-12.75Z" fill="#5b313c"/>
  <path d="m804.203,271.408c-10.523,3.481-16.231,14.834-12.75,25.356l38.107-12.606c-3.481-10.523-14.834-16.231-25.357-12.75Z" fill="#5b313c"/>
  <path d="m908.573,248.234c-10.523,3.481-16.231,14.834-12.75,25.356l38.107-12.606c-3.481-10.523-14.834-16.231-25.357-12.75Z" fill="#5b313c"/>
  <path d="m938.177,242.492c-10.523,3.481-16.231,14.834-12.75,25.356l38.107-12.606c-3.481-10.523-14.834-16.231-25.357-12.75Z" fill="#5b313c"/>
  <path d="m827.116,259.483c-8.3,2.746-12.803,11.7-10.057,20l30.057-9.943c-2.746-8.3-11.7-12.803-20-10.057Z" fill="#5b313c"/>
  <path d="m612.061,302.414c-8.3,2.746-12.803,11.7-10.057,20l30.057-9.943c-2.746-8.3-11.7-12.803-20-10.057Z" fill="#5b313c"/>
  <path d="m520.021,324.533c-8.3,2.746-12.803,11.7-10.057,20l30.057-9.943c-2.746-8.3-11.7-12.803-20-10.057Z" fill="#5b313c"/>
  <path d="m768.178,314.13c-8.3,2.746-12.803,11.7-10.057,20l30.057-9.943c-2.746-8.3-11.7-12.803-20-10.057Z" fill="#5b313c"/>
</svg>