<?xml version="1.0" encoding="utf-8"?>
<!-- Generator: Adobe Illustrator 27.2.0, SVG Export Plug-In . SVG Version: 6.00 Build 0)  -->
<svg version="1.1" id="Layer_2_00000068678883445634590370000000679073744046237847_"
	 xmlns="http://www.w3.org/2000/svg" xmlns:xlink="http://www.w3.org/1999/xlink" x="0px" y="0px" viewBox="0 0 548.4 41.2"
	 style="enable-background:new 0 0 548.4 41.2;" xml:space="preserve">
<style type="text/css">
	.st0{fill:#FFFFFF;stroke:#FFFFFF;stroke-miterlimit:10;}
</style>
<path class="st0" d="M20.7,2.1L20.7,2.1c0,0.6-0.5,1.1-1.1,1.1H2.7v16.3h16.9c0.6,0,1.1,0.5,1.1,1.1v0.1c0,0.6-0.5,1.1-1.1,1.1H2.7
	v17.4c0,0.6-0.5,1.1-1.1,1.1l0,0c-0.6,0-1.1-0.5-1.1-1.1V2.3C0.5,1.6,1.1,1,1.8,1h17.8C20.2,1,20.7,1.5,20.7,2.1z"/>
<path class="st0" d="M51.9,1L51.9,1C52.5,1,53,1.5,53,2.1v27.1c-0.4,3-1.6,5.5-3.7,7.6c-2.4,2.4-5.6,3.8-9,3.8
	c-3.6,0-6.6-1.3-9.2-3.8c-2.4-2.4-3.7-5.8-3.7-9.2c0-7,0-21.4,0-25.5C27.5,1.4,28,1,28.6,1h0.1c0.6,0,1.1,0.5,1.1,1.1v25.7
	c0,2.9,1,5.4,3.1,7.5c2,2,4.7,3.1,7.5,3.1c2.9,0,5.4-1,7.5-3.1s3.1-4.6,3.1-7.5V2.1C50.8,1.5,51.3,1,51.9,1z"/>
<path class="st0" d="M63.8,40.2c-0.7,0-1.2-0.6-1.2-1.2V2.1C62.5,1.5,63,1,63.6,1h0.1c0.6,0,1.1,0.5,1.1,1.1V38h13.9
	c0.6,0,1.1,0.5,1.1,1.1v0.1c0,0.6-0.5,1.1-1.1,1.1L63.8,40.2L63.8,40.2z"/>
<path class="st0" d="M88.5,2.1C88.5,1.5,89,1,89.6,1h0.1c0.6,0,1.1,0.5,1.1,1.1V38h13.9c0.6,0,1.1,0.5,1.1,1.1v0.1
	c0,0.6-0.5,1.1-1.1,1.1H89.8c-0.7,0-1.2-0.6-1.2-1.2L88.5,2.1z"/>
<path class="st0" d="M125.1,18.5c-2.8-0.9-5-2.2-6.6-3.8s-2.4-3.6-2.4-5.9s0.8-4.2,2.4-5.8s3.6-2.4,5.9-2.4s4.2,0.8,5.9,2.4
	c0.6,0.6,1,1.2,1.4,1.8c0.3,0.6,0,1.3-0.6,1.5l0,0c-0.5,0.2-1.1,0-1.3-0.5c-0.3-0.5-0.7-1-1.2-1.5c-1-1-2.3-1.6-3.8-1.7
	c-1.9-0.1-3.5,0.5-4.7,1.8c-1.2,1.2-1.8,2.6-1.8,4.3s0.6,3.1,1.8,4.3c0.8,0.8,1.8,1.5,3,2.2c0.9,0.5,1.8,0.9,2.7,1.2
	c2.4,0.9,4.4,2.1,6.2,3.7c2.4,2.2,4,5.3,4,8.7c0,3.3-1.1,6.1-3.4,8.4c-2.3,2.3-5,3.4-8.2,3.4s-6-1.1-8.2-3.4
	c-1.6-1.6-2.6-3.3-3.1-5.3c-0.1-0.6,0.1-1.1,0.7-1.3l0,0c0.6-0.2,1.3,0.1,1.4,0.8c0.4,1.6,1.2,3.1,2.5,4.3c1.8,1.8,4.1,2.8,6.7,2.8
	c2.5,0,4.9-1,6.7-2.8s2.8-4.1,2.8-6.7s-0.9-4.8-2.8-6.7C129.4,20.7,127.4,19.4,125.1,18.5L125.1,18.5z"/>
<path class="st0" d="M154.8,3.2v35.9c0,0.6-0.5,1.1-1.1,1.1l0,0c-0.6,0-1.1-0.5-1.1-1.1V3.2h-8.8c-0.6,0-1.1-0.5-1.1-1.1l0,0
	c0-0.6,0.5-1.1,1.1-1.1h19.9c0.6,0,1.1,0.5,1.1,1.1v0.1c0,0.6-0.5,1.1-1.1,1.1L154.8,3.2L154.8,3.2z"/>
<path class="st0" d="M183.3,1c0.7,0,1.3,0.4,1.5,1.1l13.3,36.7c0.3,0.7-0.3,1.5-1,1.5l0,0c-0.5,0-0.9-0.3-1-0.7l-6-16.5h-13.6
	l-6.1,16.5c-0.2,0.4-0.6,0.7-1,0.7h-0.1c-0.8,0-1.3-0.7-1-1.5L181.8,2C182,1.4,182.6,1,183.3,1L183.3,1z M189.3,20.7l-6-16.4
	l-6,16.4H189.3L189.3,20.7z"/>
<path class="st0" d="M236.9,33.9l0.8,0.7c0.5,0.4,0.5,1.2,0,1.6c-3.6,2.9-7.8,4.4-12.6,4.4c-5.6,0-10.3-2-14.2-5.9
	s-5.9-8.6-5.9-14.2c0-5.5,2-10.3,5.9-14.2s8.6-5.9,14.2-5.9c4.8,0,8.9,1.5,12.6,4.4c0.5,0.4,0.5,1.2,0,1.6l-0.1,0.1
	c-0.4,0.4-1,0.4-1.4,0c-3.2-2.6-6.9-3.9-11.1-3.9c-4.8,0-9.5,2-12.8,5.4s-5,7.5-5,12.3s1.9,9.4,5.4,12.8s7.6,5.1,12.5,5.1
	C229.6,38.4,233.6,36.9,236.9,33.9L236.9,33.9z"/>
<path class="st0" d="M264.6,2.7l-9,13l15.9,22.8c0.5,0.7,0,1.7-0.9,1.7l0,0c-0.4,0-0.7-0.2-0.9-0.5l-15.5-22.2l-4.2,6V39
	c0,0.6-0.5,1.1-1.1,1.1h-0.1c-0.6,0-1.1-0.5-1.1-1.1V2c0-0.6,0.5-1.1,1.1-1.1h0.1c0.6,0,1.1,0.5,1.1,1.1v17.7l12.8-18.3
	c0.2-0.3,0.5-0.5,0.9-0.5h0.1C264.6,1,265.1,2,264.6,2.7z"/>
<path class="st0" d="M317.6,2.1L317.6,2.1c0,0.6-0.5,1.1-1.1,1.1h-16.3v16.3h16.3c0.6,0,1.1,0.5,1.1,1.1v0.1c0,0.6-0.5,1.1-1.1,1.1
	h-16.3V38h16.3c0.6,0,1.1,0.5,1.1,1.1v0.1c0,0.6-0.5,1.1-1.1,1.1h-17.4c-0.6,0-1.1-0.5-1.1-1.1v-37c0-0.6,0.5-1.1,1.1-1.1h17.4
	C317.1,1,317.6,1.5,317.6,2.1z"/>
<path class="st0" d="M331.4,1.7l25.5,35.7V2.1c0-0.6,0.5-1.1,1.1-1.1h0.1c0.6,0,1.1,0.5,1.1,1.1V38c0,1.2-1,2.3-2.3,2.3l0,0
	c-0.7,0-1.4-0.4-1.8-0.9L330.2,4.5v34.6c0,0.6-0.5,1.1-1.1,1.1H329c-0.6,0-1.1-0.5-1.1-1.1V2.8c0-1,0.8-1.8,1.8-1.8l0,0
	C330.5,1,331,1.3,331.4,1.7z"/>
<path class="st0" d="M401.9,33.6c0,1.1-0.5,2.2-1.4,2.9c-3.4,2.8-7.4,4.1-12,4.1c-5.6,0-10.3-2-14.2-5.9c-3.9-3.9-5.9-8.6-5.9-14.2
	c0-5.5,2-10.3,5.9-14.2s8.6-5.9,14.2-5.9c4.8,0,8.9,1.5,12.6,4.4c0.5,0.4,0.5,1.2,0,1.7l0,0c-0.4,0.4-1,0.4-1.4,0
	C396.6,4,393,2.7,389,2.6c-4.9-0.1-9.8,1.9-13.2,5.4c-3.3,3.4-5,7.5-5,12.3s1.9,9.4,5.4,12.8s7.6,5.1,12.5,5.1c3.7,0,7-1,10-3
	c0.7-0.5,1.2-1.3,1.2-2.2v-9.5c0-0.6,0.5-1.1,1.1-1.1l0,0c0.6,0,1.1,0.5,1.1,1.1L401.9,33.6z"/>
<path class="st0" d="M413.9,2.1v37c0,0.6-0.5,1.1-1.1,1.1l0,0c-0.6,0-1.1-0.5-1.1-1.1v-37c0-0.6,0.5-1.1,1.1-1.1l0,0
	C413.4,1,413.9,1.5,413.9,2.1z"/>
<path class="st0" d="M428,1.7l25.5,35.7V2.1c0-0.6,0.5-1.1,1.1-1.1l0,0c0.6,0,1.1,0.5,1.1,1.1V38c0,1.2-1,2.3-2.3,2.3l0,0
	c-0.7,0-1.4-0.4-1.8-0.9L426.8,4.5v34.6c0,0.6-0.5,1.1-1.1,1.1l0,0c-0.6,0-1.1-0.5-1.1-1.1V2.8c0-1,0.8-1.8,1.8-1.8l0,0
	C427,1,427.6,1.3,428,1.7z"/>
<path class="st0" d="M485.7,2.1L485.7,2.1c0,0.6-0.5,1.1-1.1,1.1h-16.3v16.3h16.3c0.6,0,1.1,0.5,1.1,1.1l0,0c0,0.6-0.5,1.1-1.1,1.1
	h-16.3V38h16.3c0.6,0,1.1,0.5,1.1,1.1l0,0c0,0.6-0.5,1.1-1.1,1.1h-17.4c-0.6,0-1.1-0.5-1.1-1.1v-37c0-0.6,0.5-1.1,1.1-1.1h17.4
	C485.2,1,485.7,1.5,485.7,2.1z"/>
<path class="st0" d="M515.7,2.1L515.7,2.1c0,0.6-0.5,1.1-1.1,1.1h-16.3v16.3h16.3c0.6,0,1.1,0.5,1.1,1.1l0,0c0,0.6-0.5,1.1-1.1,1.1
	h-16.3V38h16.3c0.6,0,1.1,0.5,1.1,1.1l0,0c0,0.6-0.5,1.1-1.1,1.1h-17.4c-0.6,0-1.1-0.5-1.1-1.1v-37c0-0.6,0.5-1.1,1.1-1.1h17.4
	C515.3,1,515.7,1.5,515.7,2.1z"/>
<path class="st0" d="M535.8,26.6h-7.3v12.5c0,0.6-0.5,1.1-1.1,1.1l0,0c-0.6,0-1.1-0.5-1.1-1.1v-37c0-0.6,0.5-1.1,1.1-1.1h7.8
	c1.1,0,2.2,0.1,3.3,0.4c2.2,0.6,4.1,1.7,5.7,3.3c2.5,2.5,3.7,5.5,3.7,9s-1.2,6.6-3.7,9.1c-1.7,1.7-3.7,2.9-6,3.4l7.9,12.3
	c0.5,0.7-0.1,1.7-0.9,1.7h-0.1c-0.4,0-0.7-0.2-0.9-0.5L535.8,26.6L535.8,26.6z M528.4,3.2v21.1h6.7c2.9,0,5.4-1,7.5-3.1
	s3.1-4.6,3.1-7.5s-1-5.4-3.1-7.5s-4.6-3.1-7.5-3.1L528.4,3.2L528.4,3.2z"/>
</svg>
