<?xml version="1.0" encoding="UTF-8"?>
<svg id="Layer_2" data-name="Layer 2" xmlns="http://www.w3.org/2000/svg" viewBox="0 0 590.954 49.598" preserveAspectRatio="none">
  <g id="subtitle">
    <g>
      <path d="m22.6,2.536v2.519H4.662v18.485h17.938v2.52H4.662v21.004h-2.662V2.536h20.6Z" fill="#fff" stroke="#fff" stroke-linecap="round" stroke-linejoin="round" stroke-width="4"/>
      <path d="m56.113,2.536h2.662v31.994c-.488,3.401-1.986,6.288-4.493,8.66-2.995,2.834-6.612,4.251-10.849,4.251-4.26,0-7.887-1.417-10.882-4.251-2.995-2.834-4.493-6.255-4.493-10.266V2.536h2.662v30.388c0,3.296,1.242,6.12,3.728,8.471,2.484,2.352,5.479,3.527,8.985,3.527s6.495-1.176,8.969-3.527c2.474-2.351,3.711-5.175,3.711-8.471V2.536Z" fill="#fff" stroke="#fff" stroke-linecap="round" stroke-linejoin="round" stroke-width="4"/>
      <path d="m66.23,47.063V2.536h2.662v42.008h17.938v2.519h-20.6Z" fill="#fff" stroke="#fff" stroke-linecap="round" stroke-linejoin="round" stroke-width="4"/>
      <path d="m92.288,47.063V2.536h2.662v42.008h17.938v2.519h-20.6Z" fill="#fff" stroke="#fff" stroke-linecap="round" stroke-linejoin="round" stroke-width="4"/>
      <path d="m147.998,22.406c-3.351-1.049-5.996-2.493-7.938-4.33s-2.912-4.067-2.912-6.692c0-2.561.97-4.765,2.912-6.613,1.941-1.847,4.298-2.771,7.072-2.771,2.729,0,5.08.924,7.055,2.771,1.065.987,1.808,2.089,2.229,3.306l-2.396.882c-.355-.902-.932-1.732-1.73-2.488-1.42-1.343-3.14-2.015-5.158-2.015s-3.744.672-5.175,2.015c-1.431,1.344-2.146,2.981-2.146,4.913,0,1.911.71,3.548,2.13,4.913,1.331,1.239,3.172,2.373,5.524,3.401,3.771,1.155,6.944,2.95,9.518,5.385,2.707,2.562,4.06,5.658,4.06,9.29,0,3.653-1.359,6.77-4.077,9.353-2.718,2.582-5.996,3.873-9.834,3.873-3.861,0-7.145-1.301-9.851-3.905-2.196-2.057-3.506-4.45-3.927-7.18l2.496-.85c.267,2.414,1.353,4.514,3.262,6.298,2.218,2.1,4.892,3.149,8.021,3.149s5.801-1.049,8.02-3.149c2.218-2.099,3.328-4.629,3.328-7.589,0-2.939-1.11-5.458-3.328-7.558-1.953-1.847-4.337-3.316-7.155-4.409Z" fill="#fff" stroke="#fff" stroke-linecap="round" stroke-linejoin="round" stroke-width="4"/>
      <path d="m178.482,5.055v42.008h-2.629V5.055h-11.914v-2.519h26.458v2.519h-11.914Z" fill="#fff" stroke="#fff" stroke-linecap="round" stroke-linejoin="round" stroke-width="4"/>
      <path d="m209,2.536l17.073,44.527h-2.796l-7.521-19.587h-16.274l-7.654,19.587h-2.829L206.271,2.536h2.729Zm5.791,22.453l-7.155-18.674-7.188,18.674h14.343Z" fill="#fff" stroke="#fff" stroke-linecap="round" stroke-linejoin="round" stroke-width="4"/>
      <path d="m266.906,39.978l2.03,1.701c-4.593,3.947-9.996,5.92-16.208,5.92-6.678,0-12.363-2.22-17.056-6.66-4.692-4.44-7.039-9.819-7.039-16.139,0-6.277,2.346-11.646,7.039-16.107,4.692-4.461,10.377-6.692,17.056-6.692,6.212,0,11.615,1.984,16.208,5.952l-2.03,1.701c-4.038-3.38-8.764-5.07-14.177-5.07-5.902,0-10.944,1.974-15.125,5.92-4.183,3.947-6.273,8.713-6.273,14.297s2.091,10.381,6.273,14.328c4.182,3.947,9.224,5.92,15.125,5.92,5.413,0,10.139-1.689,14.177-5.07Z" fill="#fff" stroke="#fff" stroke-linecap="round" stroke-linejoin="round" stroke-width="4"/>
      <path d="m296.359,2.536l-12.214,16.721,20.567,27.806h-3.228l-19.036-25.728-5.059,6.865v18.863h-2.662V2.536h2.662v21.319l15.741-21.319h3.229Z" fill="#fff" stroke="#fff" stroke-linecap="round" stroke-linejoin="round" stroke-width="4"/>
      <path d="m348.408,2.536v2.519h-20.866v18.485h20.866v2.52h-20.866v18.485h20.866v2.519h-23.528V2.536h23.528Z" fill="#fff" stroke="#fff" stroke-linecap="round" stroke-linejoin="round" stroke-width="4"/>
      <path d="m359.125,2.536l31.283,41.473V2.536h2.663v44.527h-4.093l-30.551-40.497v40.497h-2.663V2.536h3.361Z" fill="#fff" stroke="#fff" stroke-linecap="round" stroke-linejoin="round" stroke-width="4"/>
      <path d="m439.262,41.521c-4.459,4.052-9.796,6.078-16.008,6.078-6.678,0-12.363-2.22-17.056-6.66-4.692-4.44-7.039-9.819-7.039-16.139,0-6.277,2.346-11.646,7.039-16.107,4.692-4.461,10.377-6.692,17.056-6.692,6.212,0,11.615,1.984,16.208,5.952l-2.03,1.701c-4.038-3.38-8.764-5.07-14.177-5.07-5.902,0-10.944,1.974-15.125,5.92-4.183,3.947-6.273,8.713-6.273,14.297s2.091,10.381,6.273,14.328c4.182,3.947,9.224,5.92,15.125,5.92,5.059,0,9.518-1.469,13.378-4.408v-13.573h2.629v14.454Z" fill="#fff" stroke="#fff" stroke-linecap="round" stroke-linejoin="round" stroke-width="4"/>
      <path d="m448.647,2.536v44.527h-2.663V2.536h2.663Z" fill="#fff" stroke="#fff" stroke-linecap="round" stroke-linejoin="round" stroke-width="4"/>
      <path d="m459.696,2.536l31.283,41.473V2.536h2.663v44.527h-4.093l-30.551-40.497v40.497h-2.663V2.536h3.361Z" fill="#fff" stroke="#fff" stroke-linecap="round" stroke-linejoin="round" stroke-width="4"/>
      <path d="m524.524,2.536v2.519h-20.866v18.485h20.866v2.52h-20.866v18.485h20.866v2.519h-23.528V2.536h23.528Z" fill="#fff" stroke="#fff" stroke-linecap="round" stroke-linejoin="round" stroke-width="4"/>
      <path d="m555.508,2.536v2.519h-20.866v18.485h20.866v2.52h-20.866v18.485h20.866v2.519h-23.528V2.536h23.528Z" fill="#fff" stroke="#fff" stroke-linecap="round" stroke-linejoin="round" stroke-width="4"/>
      <path d="m574.411,31.633h-8.786v15.43h-2.662V2.536h12.347c3.594.462,6.645,1.879,9.152,4.251,2.995,2.855,4.493,6.277,4.493,10.266,0,4.031-1.498,7.463-4.493,10.297-2.086,1.974-4.471,3.265-7.155,3.873l10.849,15.84h-3.261l-10.483-15.43Zm-8.786-26.546v23.996h7.987c3.483,0,6.467-1.17,8.952-3.511,2.484-2.341,3.728-5.18,3.728-8.518,0-3.317-1.243-6.141-3.728-8.471-2.485-2.33-5.469-3.495-8.952-3.495h-7.987Z" fill="#fff" stroke="#fff" stroke-linecap="round" stroke-linejoin="round" stroke-width="4"/>
    </g>
  </g>
</svg>