<?xml version="1.0" encoding="UTF-8"?>
<svg id="subtitle" xmlns="http://www.w3.org/2000/svg" viewBox="0 0 602.889 49.956">
  <g>
    <line x1="4.399" y1="4.591" x2="4.399" y2="46.357" fill="none" stroke="#fff" stroke-linecap="round" stroke-linejoin="round" stroke-width="3"/>
    <line x1="26.063" y1="4.591" x2="4.399" y2="4.591" fill="none" stroke="#fff" stroke-linecap="round" stroke-linejoin="round" stroke-width="3"/>
    <line x1="26.063" y1="24.84" x2="4.399" y2="24.84" fill="none" stroke="#fff" stroke-linecap="round" stroke-linejoin="round" stroke-width="3"/>
  </g>
  <path d="m37.706,4.224v29.319c0,7.077,5.737,12.814,12.814,12.814h0c7.077,0,12.814-5.737,12.814-12.814V4.224" fill="none" stroke="#fff" stroke-linecap="round" stroke-linejoin="round" stroke-width="3"/>
  <polyline points="75.321 4.224 75.321 45.142 92.609 45.142" fill="none" stroke="#fff" stroke-linecap="round" stroke-linejoin="round" stroke-width="3"/>
  <polyline points="104.294 4.224 104.294 45.142 121.582 45.142" fill="none" stroke="#fff" stroke-linecap="round" stroke-linejoin="round" stroke-width="3"/>
  <path d="m130.822,33.79c0,6.269,5.082,11.351,11.351,11.351s11.351-5.082,11.351-11.351c0-3.366-1.056-9.558-11.167-12.637-8.129-2.475-8.885-7.447-8.778-9.646.231-4.746,4.266-8.406,9.013-8.175,3.704.18,6.746,2.677,7.794,6.02" fill="none" stroke="#fff" stroke-linecap="round" stroke-linejoin="round" stroke-width="3"/>
  <g>
    <line x1="162.923" y1="4.394" x2="185.627" y2="4.394" fill="none" stroke="#fff" stroke-linecap="round" stroke-linejoin="round" stroke-width="3"/>
    <line x1="174.275" y1="46.182" x2="174.275" y2="4.394" fill="none" stroke="#fff" stroke-linecap="round" stroke-linejoin="round" stroke-width="3"/>
  </g>
  <g>
    <polyline points="220.369 45.688 204.701 4.394 189.033 45.688" fill="none" stroke="#fff" stroke-linecap="round" stroke-linejoin="round" stroke-width="3"/>
    <line x1="213.113" y1="26.564" x2="196.289" y2="26.564" fill="none" stroke="#fff" stroke-linecap="round" stroke-linejoin="round" stroke-width="3"/>
  </g>
  <path d="m263.075,10.197c-3.731-3.562-8.774-5.762-14.34-5.762-11.481,0-20.788,9.307-20.788,20.788s9.307,20.788,20.788,20.788c5.566,0,10.609-2.2,14.34-5.762" fill="none" stroke="#fff" stroke-linecap="round" stroke-linejoin="round" stroke-width="3"/>
  <g>
    <line x1="274.687" y1="3.801" x2="274.687" y2="46.012" fill="none" stroke="#fff" stroke-linecap="round" stroke-linejoin="round" stroke-width="3"/>
    <line x1="291.32" y1="4.435" x2="274.687" y2="27.282" fill="none" stroke="#fff" stroke-linecap="round" stroke-linejoin="round" stroke-width="3"/>
    <line x1="280.435" y1="19.387" x2="299.012" y2="45.688" fill="none" stroke="#fff" stroke-linecap="round" stroke-linejoin="round" stroke-width="3"/>
  </g>
  <g>
    <line x1="328.565" y1="4.591" x2="328.565" y2="46.357" fill="none" stroke="#fff" stroke-linecap="round" stroke-linejoin="round" stroke-width="3"/>
    <line x1="350.229" y1="4.591" x2="328.565" y2="4.591" fill="none" stroke="#fff" stroke-linecap="round" stroke-linejoin="round" stroke-width="3"/>
    <line x1="350.229" y1="24.84" x2="328.565" y2="24.84" fill="none" stroke="#fff" stroke-linecap="round" stroke-linejoin="round" stroke-width="3"/>
    <line x1="350.229" y1="46.357" x2="328.565" y2="46.357" fill="none" stroke="#fff" stroke-linecap="round" stroke-linejoin="round" stroke-width="3"/>
  </g>
  <polyline points="394.279 4.435 394.279 46.012 363.099 4.435 363.099 46.012" fill="none" stroke="#fff" stroke-linecap="round" stroke-linejoin="round" stroke-width="3"/>
  <path d="m439.984,10.197c-3.731-3.562-8.774-5.762-14.34-5.762-11.481,0-20.788,9.307-20.788,20.788s9.307,20.788,20.788,20.788c5.566,0,10.609-2.2,14.34-5.762v-12.024" fill="none" stroke="#fff" stroke-linecap="round" stroke-linejoin="round" stroke-width="3"/>
  <line x1="452.705" y1="4.591" x2="452.705" y2="46.012" fill="none" stroke="#fff" stroke-linecap="round" stroke-linejoin="round" stroke-width="3"/>
  <polyline points="498.156 4.435 498.156 46.012 466.976 4.435 466.976 46.012" fill="none" stroke="#fff" stroke-linecap="round" stroke-linejoin="round" stroke-width="3"/>
  <g>
    <line x1="511.072" y1="4.591" x2="511.072" y2="46.357" fill="none" stroke="#fff" stroke-linecap="round" stroke-linejoin="round" stroke-width="3"/>
    <line x1="532.736" y1="4.591" x2="511.072" y2="4.591" fill="none" stroke="#fff" stroke-linecap="round" stroke-linejoin="round" stroke-width="3"/>
    <line x1="532.736" y1="24.84" x2="511.072" y2="24.84" fill="none" stroke="#fff" stroke-linecap="round" stroke-linejoin="round" stroke-width="3"/>
    <line x1="532.736" y1="46.357" x2="511.072" y2="46.357" fill="none" stroke="#fff" stroke-linecap="round" stroke-linejoin="round" stroke-width="3"/>
  </g>
  <g>
    <line x1="544.856" y1="4.591" x2="544.856" y2="46.357" fill="none" stroke="#fff" stroke-linecap="round" stroke-linejoin="round" stroke-width="3"/>
    <line x1="566.52" y1="4.591" x2="544.856" y2="4.591" fill="none" stroke="#fff" stroke-linecap="round" stroke-linejoin="round" stroke-width="3"/>
    <line x1="566.52" y1="24.84" x2="544.856" y2="24.84" fill="none" stroke="#fff" stroke-linecap="round" stroke-linejoin="round" stroke-width="3"/>
    <line x1="566.52" y1="46.357" x2="544.856" y2="46.357" fill="none" stroke="#fff" stroke-linecap="round" stroke-linejoin="round" stroke-width="3"/>
  </g>
  <g>
    <line x1="577.542" y1="4.435" x2="577.542" y2="45.894" fill="none" stroke="#fff" stroke-linecap="round" stroke-linejoin="round" stroke-width="3"/>
    <path d="m577.542,4.435h8.795c6.974,0,12.628,5.654,12.628,12.628h0c0,6.974-5.654,12.628-12.628,12.628h-8.795" fill="none" stroke="#fff" stroke-linecap="round" stroke-linejoin="round" stroke-width="3"/>
    <line x1="587.293" y1="29.651" x2="597.847" y2="45.894" fill="none" stroke="#fff" stroke-linecap="round" stroke-linejoin="round" stroke-width="3"/>
  </g>
</svg>