<?xml version="1.0" encoding="UTF-8"?>
<svg id="Layer_2" data-name="Layer 2" xmlns="http://www.w3.org/2000/svg" viewBox="0 0 548.373 41.151">
  <g id="subtitle">
    <g>
      <path d="m17.665.972v2.218H2.718v16.277h14.946v2.218H2.718v18.495H.5V.972h17.165Z" fill="#fff" stroke="#fff" stroke-linecap="round" stroke-linejoin="round"/>
      <path d="m49.846.972h2.218v28.172c-.407,2.995-1.654,5.537-3.743,7.625-2.496,2.496-5.509,3.743-9.04,3.743-3.549,0-6.572-1.248-9.067-3.743s-3.744-5.508-3.744-9.04V.972h2.218v26.758c0,2.902,1.035,5.389,3.106,7.459,2.07,2.071,4.565,3.105,7.487,3.105s5.411-1.035,7.473-3.105c2.061-2.07,3.092-4.557,3.092-7.459V.972Z" fill="#fff" stroke="#fff" stroke-linecap="round" stroke-linejoin="round"/>
      <path d="m62.535,40.18V.972h2.218v36.99h14.946v2.218h-17.165Z" fill="#fff" stroke="#fff" stroke-linecap="round" stroke-linejoin="round"/>
      <path d="m88.506,40.18V.972h2.218v36.99h14.946v2.218h-17.165Z" fill="#fff" stroke="#fff" stroke-linecap="round" stroke-linejoin="round"/>
      <path d="m125.097,18.468c-2.792-.924-4.996-2.195-6.613-3.812-1.618-1.617-2.426-3.582-2.426-5.893,0-2.255.809-4.196,2.426-5.823,1.618-1.626,3.582-2.44,5.893-2.44,2.274,0,4.233.814,5.878,2.44.887.869,1.506,1.839,1.858,2.912l-1.997.776c-.296-.795-.776-1.525-1.442-2.191-1.183-1.183-2.616-1.774-4.298-1.774s-3.12.592-4.312,1.774c-1.192,1.184-1.789,2.625-1.789,4.326,0,1.683.592,3.125,1.775,4.326,1.109,1.091,2.643,2.089,4.603,2.995,3.143,1.017,5.786,2.597,7.93,4.742,2.255,2.255,3.383,4.982,3.383,8.18,0,3.217-1.133,5.962-3.397,8.235-2.265,2.274-4.996,3.411-8.194,3.411-3.217,0-5.953-1.146-8.208-3.438-1.83-1.812-2.921-3.919-3.272-6.322l2.08-.749c.222,2.126,1.127,3.975,2.717,5.546,1.848,1.849,4.076,2.773,6.683,2.773s4.834-.924,6.683-2.773,2.773-4.076,2.773-6.683c0-2.588-.925-4.806-2.773-6.655-1.627-1.626-3.614-2.921-5.962-3.882Z" fill="#fff" stroke="#fff" stroke-linecap="round" stroke-linejoin="round"/>
      <path d="m154.756,3.19v36.99h-2.19V3.19h-9.927V.972h22.044v2.218h-9.927Z" fill="#fff" stroke="#fff" stroke-linecap="round" stroke-linejoin="round"/>
      <path d="m184.442.972l14.225,39.208h-2.329l-6.267-17.248h-13.559l-6.378,17.248h-2.357L182.168.972h2.273Zm4.825,19.771l-5.961-16.443-5.989,16.443h11.951Z" fill="#fff" stroke="#fff" stroke-linecap="round" stroke-linejoin="round"/>
      <path d="m236.949,33.941l1.691,1.497c-3.826,3.476-8.328,5.213-13.504,5.213-5.564,0-10.301-1.955-14.211-5.864-3.91-3.91-5.865-8.647-5.865-14.211,0-5.527,1.955-10.255,5.865-14.183,3.91-3.928,8.646-5.893,14.211-5.893,5.176,0,9.678,1.747,13.504,5.241l-1.691,1.498c-3.365-2.976-7.302-4.464-11.812-4.464-4.917,0-9.118,1.738-12.603,5.213-3.485,3.476-5.227,7.672-5.227,12.589s1.742,9.142,5.227,12.617c3.484,3.476,7.685,5.213,12.603,5.213,4.51,0,8.448-1.488,11.812-4.464Z" fill="#fff" stroke="#fff" stroke-linecap="round" stroke-linejoin="round"/>
      <path d="m265.749.972l-10.176,14.724,17.136,24.484h-2.69l-15.861-22.654-4.215,6.045v16.609h-2.218V.972h2.218v18.772l13.116-18.772h2.69Z" fill="#fff" stroke="#fff" stroke-linecap="round" stroke-linejoin="round"/>
      <path d="m317.635.972v2.218h-17.386v16.277h17.386v2.218h-17.386v16.277h17.386v2.218h-19.604V.972h19.604Z" fill="#fff" stroke="#fff" stroke-linecap="round" stroke-linejoin="round"/>
      <path d="m330.823.972l26.065,36.519V.972h2.218v39.208h-3.411l-25.455-35.659v35.659h-2.218V.972h2.801Z" fill="#fff" stroke="#fff" stroke-linecap="round" stroke-linejoin="round"/>
      <path d="m401.853,35.3c-3.716,3.568-8.162,5.352-13.338,5.352-5.564,0-10.301-1.955-14.211-5.864-3.91-3.91-5.865-8.647-5.865-14.211,0-5.527,1.955-10.255,5.865-14.183,3.91-3.928,8.646-5.893,14.211-5.893,5.176,0,9.678,1.747,13.504,5.241l-1.691,1.498c-3.365-2.976-7.302-4.464-11.812-4.464-4.917,0-9.118,1.738-12.603,5.213-3.485,3.476-5.227,7.672-5.227,12.589s1.742,9.142,5.227,12.617c3.484,3.476,7.685,5.213,12.603,5.213,4.215,0,7.931-1.294,11.147-3.882v-11.951h2.191v12.728Z" fill="#fff" stroke="#fff" stroke-linecap="round" stroke-linejoin="round"/>
      <path d="m413.932.972v39.208h-2.218V.972h2.218Z" fill="#fff" stroke="#fff" stroke-linecap="round" stroke-linejoin="round"/>
      <path d="m427.397.972l26.065,36.519V.972h2.218v39.208h-3.411l-25.455-35.659v35.659h-2.218V.972h2.801Z" fill="#fff" stroke="#fff" stroke-linecap="round" stroke-linejoin="round"/>
      <path d="m485.672.972v2.218h-17.386v16.277h17.386v2.218h-17.386v16.277h17.386v2.218h-19.604V.972h19.604Z" fill="#fff" stroke="#fff" stroke-linecap="round" stroke-linejoin="round"/>
      <path d="m515.747.972v2.218h-17.386v16.277h17.386v2.218h-17.386v16.277h17.386v2.218h-19.604V.972h19.604Z" fill="#fff" stroke="#fff" stroke-linecap="round" stroke-linejoin="round"/>
      <path d="m535.756,26.593h-7.321v13.587h-2.218V.972h10.288c2.995.407,5.536,1.654,7.625,3.743,2.496,2.514,3.743,5.528,3.743,9.04,0,3.549-1.248,6.572-3.743,9.067-1.738,1.738-3.725,2.875-5.962,3.411l9.04,13.948h-2.717l-8.734-13.587Zm-7.321-23.375v21.129h6.655c2.902,0,5.388-1.03,7.459-3.092,2.07-2.061,3.105-4.562,3.105-7.501,0-2.92-1.036-5.407-3.105-7.459-2.071-2.052-4.557-3.078-7.459-3.078h-6.655Z" fill="#fff" stroke="#fff" stroke-linecap="round" stroke-linejoin="round"/>
    </g>
  </g>
</svg>