<?xml version="1.0" encoding="UTF-8"?>
<svg id="Layer_2" data-name="Layer 2" xmlns="http://www.w3.org/2000/svg" viewBox="0 0 596.91 43.37">
  <defs>
    <style>
      .cls-1 {
        fill: #fff;
      }
    </style>
  </defs>
  <g id="subtitle_2">
    <g>
      <path class="cls-1" d="m0,40.85V2.49C0,1.5.8.7,1.78.7h22.05c.97,0,1.75.79,1.75,1.75v.06c0,.97-.79,1.75-1.75,1.75H3.89v15.38h18.71c.97,0,1.75.79,1.75,1.75h0c0,.97-.79,1.75-1.75,1.75H3.89v15.94h20.88c.97,0,1.75.79,1.75,1.75v.03c0,.97-.79,1.75-1.75,1.75H1.78c-.98,0-1.78-.8-1.78-1.78Z"/>
      <path class="cls-1" d="m171.81,40.85V2.49c0-.98.8-1.78,1.78-1.78h22.05c.97,0,1.75.79,1.75,1.75v.06c0,.97-.79,1.75-1.75,1.75h-19.94v15.38h18.71c.97,0,1.75.79,1.75,1.75h0c0,.97-.79,1.75-1.75,1.75h-18.71v15.94h20.88c.97,0,1.75.79,1.75,1.75v.03c0,.97-.79,1.75-1.75,1.75h-22.98c-.98,0-1.78-.8-1.78-1.78Z"/>
      <path class="cls-1" d="m206.84,40.85V2.49c0-.98.8-1.78,1.78-1.78h22.05c.97,0,1.75.79,1.75,1.75v.06c0,.97-.79,1.75-1.75,1.75h-19.94v15.38h18.71c.97,0,1.75.79,1.75,1.75h0c0,.97-.79,1.75-1.75,1.75h-18.71v15.94h20.88c.97,0,1.75.79,1.75,1.75v.03c0,.97-.79,1.75-1.75,1.75h-22.98c-.98,0-1.78-.8-1.78-1.78Z"/>
      <path class="cls-1" d="m65.14,42.64c-.87,0-1.68-.43-2.18-1.14L40.48,8.98c-.29-.43-.58-.87-.86-1.32-.28-.45-.51-.89-.69-1.32h-.15c.04.35.07.84.1,1.46.03.62.04,1.4.04,2.34v30.54c0,1.07-.87,1.94-1.94,1.94h0c-1.07,0-1.94-.87-1.94-1.94V3.35c0-1.46,1.19-2.65,2.65-2.65h.26c.87,0,1.69.43,2.18,1.15l22.11,32.1c.35.53.67,1.02.95,1.48.28.46.54.88.77,1.27,0,0,0-1.36-.03-2.16s-.06-1.69-.06-2.66V2.65c0-1.07.87-1.94,1.94-1.94h.03c1.07,0,1.94.87,1.94,1.94v37.34c0,1.46-1.19,2.65-2.65,2.65h0Z"/>
      <path class="cls-1" d="m160.64,42.64c-.87,0-1.68-.43-2.18-1.14l-22.49-32.52c-.29-.43-.58-.87-.86-1.32-.28-.45-.51-.89-.69-1.32h-.15c.04.35.07.84.1,1.46.03.62.04,1.4.04,2.34v30.54c0,1.07-.87,1.94-1.94,1.94h0c-1.07,0-1.94-.87-1.94-1.94V3.35c0-1.46,1.19-2.65,2.65-2.65h.26c.87,0,1.69.43,2.18,1.15l22.11,32.1c.35.53.67,1.02.95,1.48.28.46.54.88.77,1.27,0,0,0-1.36-.03-2.16s-.06-1.69-.06-2.66V2.65c0-1.07.87-1.94,1.94-1.94h.03c1.07,0,1.94.87,1.94,1.94v37.34c0,1.46-1.19,2.65-2.65,2.65h0Z"/>
      <path class="cls-1" d="m360.77,42.64c-.87,0-1.68-.43-2.18-1.14l-22.49-32.52c-.29-.43-.58-.87-.86-1.32-.28-.45-.51-.89-.69-1.32h-.15c.04.35.07.84.1,1.46.03.62.04,1.4.04,2.34v30.54c0,1.07-.87,1.94-1.94,1.94h0c-1.07,0-1.94-.87-1.94-1.94V3.35c0-1.46,1.19-2.65,2.65-2.65h.26c.87,0,1.69.43,2.18,1.15l22.11,32.1c.35.53.67,1.02.95,1.48.28.46.54.88.77,1.27,0,0,0-1.36-.03-2.16s-.06-1.69-.06-2.66V2.65c0-1.07.87-1.94,1.94-1.94h.03c1.07,0,1.94.87,1.94,1.94v37.34c0,1.46-1.19,2.65-2.65,2.65h0Z"/>
      <path class="cls-1" d="m109.61,37.37c0,1.49-.86,2.87-2.21,3.49-3.65,1.67-7.47,2.5-11.47,2.5-3.04,0-5.77-.52-8.19-1.56-2.42-1.04-4.47-2.5-6.17-4.36-1.7-1.86-3-4.08-3.9-6.67-.91-2.58-1.36-5.42-1.36-8.52,0-2.05.22-4.02.66-5.91.44-1.89,1.08-3.66,1.93-5.32s1.89-3.16,3.11-4.5,2.64-2.5,4.23-3.48c1.59-.97,3.34-1.73,5.25-2.25,1.91-.53,3.97-.79,6.17-.79,3.7,0,7.04.59,10.03,1.76.66.26,1.08.92,1.08,1.63v.28c0,1.26-1.27,2.15-2.43,1.67-2.88-1.2-5.93-1.8-9.15-1.8-2.55,0-4.86.47-6.93,1.4-2.07.94-3.83,2.22-5.28,3.86-1.45,1.64-2.58,3.57-3.38,5.8-.8,2.23-1.21,4.65-1.23,7.27-.02,2.59.32,4.99,1.01,7.18.69,2.19,1.72,4.09,3.09,5.69,1.36,1.6,3.05,2.85,5.06,3.74,2.01.9,4.33,1.35,6.96,1.35,3.55,0,6.63-.74,9.24-2.22v-12.78h-7.76c-.98,0-1.77-.79-1.77-1.77h0c0-.98.79-1.77,1.77-1.77h9.88c.98,0,1.77.79,1.77,1.77v14.32Z"/>
      <path class="cls-1" d="m120.08,42.64h0c-1.07,0-1.94-.87-1.94-1.94V2.65c0-1.07.87-1.94,1.94-1.94h0c1.07,0,1.94.87,1.94,1.94v38.04c0,1.07-.87,1.94-1.94,1.94Z"/>
      <path class="cls-1" d="m265.89,42.64c-.72,0-1.39-.4-1.72-1.04l-5.77-10.98c-.62-1.19-1.23-2.18-1.81-2.98-.58-.8-1.19-1.44-1.81-1.92-.62-.48-1.29-.82-2-1.02-.71-.2-1.51-.31-2.38-.31h-4.62v16.3c0,1.07-.87,1.94-1.94,1.94h0c-1.07,0-1.94-.87-1.94-1.94V2.65c0-1.07.87-1.94,1.94-1.94h10.13c1.58,0,3.1.23,4.58.7,1.47.47,2.78,1.16,3.93,2.08,1.15.92,2.07,2.07,2.76,3.45.69,1.38,1.04,2.99,1.04,4.83,0,1.48-.22,2.85-.67,4.09-.45,1.25-1.09,2.35-1.92,3.32-.83.97-1.83,1.78-3.01,2.46-1.18.67-2.51,1.17-3.99,1.51v.12c.56.23,1.08.54,1.55.91.47.37.92.82,1.36,1.35.44.53.87,1.13,1.3,1.81.43.68.88,1.46,1.35,2.34l5.49,10.11c.7,1.3-.23,2.87-1.71,2.87h-.12Zm-20.12-38.37v16.58h6.96c1.4,0,2.69-.2,3.86-.61,1.17-.41,2.17-.99,3-1.75.83-.76,1.47-1.68,1.93-2.75s.69-2.28.69-3.63c0-2.44-.79-4.35-2.35-5.75-1.57-1.39-3.84-2.09-6.8-2.09h-7.28Z"/>
      <path class="cls-1" d="m485.96,42.64c-.72,0-1.39-.4-1.72-1.04l-5.77-10.98c-.62-1.19-1.23-2.18-1.81-2.98-.58-.8-1.19-1.44-1.81-1.92-.62-.48-1.29-.82-2-1.02-.71-.2-1.51-.31-2.38-.31h-4.62v16.3c0,1.07-.87,1.94-1.94,1.94h0c-1.07,0-1.94-.87-1.94-1.94V2.65c0-1.07.87-1.94,1.94-1.94h10.13c1.58,0,3.1.23,4.58.7,1.47.47,2.78,1.16,3.93,2.08,1.15.92,2.07,2.07,2.76,3.45.69,1.38,1.04,2.99,1.04,4.83,0,1.48-.22,2.85-.67,4.09-.45,1.25-1.09,2.35-1.92,3.32-.83.97-1.83,1.78-3.01,2.46-1.18.67-2.51,1.17-3.99,1.51v.12c.56.23,1.08.54,1.55.91.47.37.92.82,1.36,1.35.44.53.87,1.13,1.3,1.81.43.68.88,1.46,1.35,2.34l5.49,10.11c.7,1.3-.23,2.87-1.71,2.87h-.12Zm-20.12-38.37v16.58h6.96c1.4,0,2.69-.2,3.86-.61,1.17-.41,2.17-.99,3-1.75.83-.76,1.47-1.68,1.93-2.75s.69-2.28.69-3.63c0-2.44-.79-4.35-2.35-5.75-1.57-1.39-3.84-2.09-6.8-2.09h-7.28Z"/>
      <path class="cls-1" d="m320.06,41.33l-4.13-11.09h-17.98l-4.02,11.07c-.29.8-1.04,1.32-1.89,1.32h0c-1.41,0-2.38-1.41-1.88-2.73l14.23-37.38c.42-1.1,1.48-1.83,2.65-1.83h0c1.18,0,2.24.73,2.66,1.83l14.15,37.38c.5,1.32-.47,2.72-1.88,2.72h-.02c-.84,0-1.59-.52-1.88-1.31Zm-12.29-33.28c-.14-.37-.28-.8-.42-1.29s-.73-.49-.88,0c-.15.49-.29.92-.42,1.29l-6.78,18.66h15.35l-6.84-18.66Z"/>
      <path class="cls-1" d="m451.76,41.33l-4.13-11.09h-17.98l-4.02,11.07c-.29.8-1.04,1.32-1.89,1.32h0c-1.41,0-2.38-1.41-1.88-2.73l14.23-37.38c.42-1.1,1.48-1.83,2.65-1.83h0c1.18,0,2.24.73,2.66,1.83l14.15,37.38c.5,1.32-.47,2.72-1.88,2.72h-.02c-.84,0-1.59-.52-1.88-1.31Zm-12.29-33.28c-.14-.37-.28-.8-.42-1.29s-.73-.49-.88,0c-.15.49-.29.92-.42,1.29l-6.78,18.66h15.35l-6.84-18.66Z"/>
      <path class="cls-1" d="m370.11,41.5V1.84c0-.63.51-1.14,1.14-1.14h9.88c7.17,0,12.59,1.72,16.26,5.16,3.67,3.44,5.5,8.52,5.5,15.25,0,3.24-.51,6.18-1.54,8.83-1.02,2.65-2.5,4.92-4.43,6.8-1.93,1.88-4.27,3.33-7.02,4.36-2.75,1.02-5.85,1.54-9.3,1.54h-9.36c-.63,0-1.14-.51-1.14-1.14Zm3.89-37.23v34.83h6.43c2.88,0,5.46-.39,7.73-1.17,2.27-.78,4.2-1.92,5.78-3.44,1.58-1.51,2.78-3.38,3.61-5.6.83-2.22,1.24-4.78,1.24-7.66,0-11.31-5.98-16.96-17.93-16.96h-6.87Z"/>
      <path class="cls-1" d="m510.27,4.27v36.58c0,.99-.8,1.78-1.78,1.78h-.32c-.99,0-1.78-.8-1.78-1.78V4.27h-10.29c-.99,0-1.78-.8-1.78-1.78h0c0-.99.8-1.78,1.78-1.78h24.51c.99,0,1.78.8,1.78,1.78h0c0,.99-.8,1.78-1.78,1.78h-10.32Z"/>
      <path class="cls-1" d="m530.6,42.64h0c-1.07,0-1.94-.87-1.94-1.94V2.65c0-1.07.87-1.94,1.94-1.94h0c1.07,0,1.94.87,1.94,1.94v38.04c0,1.07-.87,1.94-1.94,1.94Z"/>
      <path class="cls-1" d="m538.82,39.28c0-1.18,1.24-1.91,2.3-1.38,0,0,.02,0,.03.01.85.42,1.71.77,2.6,1.05.89.28,1.78.5,2.68.64.9.15,1.75.22,2.57.22,3.18,0,5.56-.61,7.14-1.84,1.58-1.23,2.37-2.99,2.37-5.29,0-1.11-.19-2.08-.56-2.91-.37-.83-.95-1.6-1.73-2.32s-1.76-1.44-2.95-2.15c-1.19-.71-2.59-1.52-4.21-2.41-1.79-.97-3.33-1.9-4.61-2.76-1.28-.87-2.32-1.75-3.13-2.66-.81-.91-1.4-1.89-1.78-2.94-.38-1.05-.57-2.25-.57-3.6,0-1.7.36-3.22,1.08-4.56.72-1.35,1.7-2.49,2.92-3.44,1.23-.95,2.67-1.67,4.31-2.18s3.41-.76,5.28-.76c2.77,0,5.16.32,7.17.97.65.21,1.1.81,1.1,1.5v.74c0,1.08-1.08,1.86-2.09,1.47-1.98-.76-4.19-1.14-6.62-1.14-1.25,0-2.42.15-3.52.45-1.1.3-2.07.75-2.9,1.33s-1.48,1.31-1.96,2.18c-.48.87-.72,1.88-.72,3.03s.16,2.03.48,2.82c.32.79.84,1.54,1.55,2.24.71.7,1.65,1.4,2.81,2.09,1.16.69,2.58,1.49,4.25,2.38,1.75.94,3.28,1.85,4.59,2.73s2.39,1.81,3.26,2.78c.87.96,1.52,1.99,1.94,3.07s.64,2.29.64,3.61c0,1.83-.34,3.45-1.02,4.84-.68,1.39-1.64,2.55-2.87,3.47-1.23.92-2.69,1.61-4.39,2.08-1.7.47-3.56.7-5.59.7-.66,0-1.45-.05-2.37-.16-.92-.11-1.84-.26-2.78-.47-.94-.2-1.83-.45-2.68-.73-.44-.15-.83-.3-1.18-.45-.55-.25-.88-.81-.88-1.41v-.83Z"/>
      <path class="cls-1" d="m584.8,4.27v36.8c0,.86-.7,1.57-1.57,1.57h-.76c-.86,0-1.57-.7-1.57-1.57V4.27h-10.51c-.86,0-1.57-.7-1.57-1.57v-.44c0-.86.7-1.57,1.57-1.57h24.94c.86,0,1.57.7,1.57,1.57v.44c0,.86-.7,1.57-1.57,1.57h-10.54Z"/>
    </g>
  </g>
</svg>