<svg preserveAspectRatio="none" width="788" height="78.202" viewBox="0 0 788 78.202" xmlns="http://www.w3.org/2000/svg"><g id="svgGroup" stroke-linecap="round" fill-rule="nonzero" font-size="9pt" stroke="#000" stroke-width="0.25mm" fill="#000" style="stroke:#000;stroke-width:0.25mm;fill:#000"><path d="M 182.3 76.601 L 169.8 76.601 L 169.8 1.601 L 179.8 1.601 L 196.9 50.201 L 193.3 50.301 L 193.3 1.601 L 205.8 1.601 L 205.8 76.601 L 195.8 76.601 L 178.7 28.001 L 182.3 27.901 L 182.3 76.601 Z M 438.4 76.601 L 425.9 76.601 L 425.9 1.601 L 435.9 1.601 L 453 50.201 L 449.4 50.301 L 449.4 1.601 L 461.9 1.601 L 461.9 76.601 L 451.9 76.601 L 434.8 28.001 L 438.4 27.901 L 438.4 76.601 Z M 55.2 76.601 L 42.7 76.601 L 42.7 1.601 L 52.7 1.601 L 69.8 50.201 L 66.2 50.301 L 66.2 1.601 L 78.7 1.601 L 78.7 76.601 L 68.7 76.601 L 51.6 28.001 L 55.2 27.901 L 55.2 76.601 Z M 92.2 59.701 L 92.2 18.501 Q 92.2 10.151 97.225 5.076 A 16.78 16.78 0 0 1 106.423 0.364 A 24.096 24.096 0 0 1 110.7 0.001 A 22.987 22.987 0 0 1 116.527 0.7 A 16.361 16.361 0 0 1 124.2 5.076 A 17.078 17.078 0 0 1 128.878 14.472 A 24.187 24.187 0 0 1 129.2 18.501 L 129.2 22.501 L 115.7 22.501 L 115.7 18.501 Q 115.7 16.251 114.4 14.876 Q 113.1 13.501 110.7 13.501 A 6.708 6.708 0 0 0 109.212 13.656 Q 108.182 13.89 107.435 14.478 A 4.021 4.021 0 0 0 107 14.876 A 4.66 4.66 0 0 0 105.809 17.273 A 6.635 6.635 0 0 0 105.7 18.501 L 105.7 59.701 Q 105.7 61.951 107 63.326 Q 108.3 64.701 110.7 64.701 A 6.708 6.708 0 0 0 112.188 64.546 Q 113.218 64.311 113.965 63.724 A 4.021 4.021 0 0 0 114.4 63.326 A 4.66 4.66 0 0 0 115.591 60.929 A 6.635 6.635 0 0 0 115.7 59.701 L 115.7 52.601 L 109.4 52.601 L 109.4 39.101 L 129.2 39.101 L 129.2 59.701 Q 129.2 68.001 124.2 73.101 A 16.622 16.622 0 0 1 115.204 77.797 A 24.013 24.013 0 0 1 110.7 78.201 A 22.66 22.66 0 0 1 104.844 77.484 A 16.434 16.434 0 0 1 97.225 73.101 A 17.192 17.192 0 0 1 92.476 63.416 A 24.091 24.091 0 0 1 92.2 59.701 Z M 709.9 59.701 L 709.9 55.701 L 723.4 55.701 L 723.4 59.701 Q 723.4 61.951 724.7 63.326 Q 726 64.701 728.4 64.701 A 6.708 6.708 0 0 0 729.888 64.546 Q 730.918 64.311 731.665 63.724 A 4.021 4.021 0 0 0 732.1 63.326 A 4.66 4.66 0 0 0 733.291 60.929 A 6.635 6.635 0 0 0 733.4 59.701 L 733.4 52.001 Q 733.4 50.701 733.3 49.951 A 2.607 2.607 0 0 0 733.165 49.392 A 1.857 1.857 0 0 0 732.775 48.751 Q 732.39 48.343 731.513 47.997 A 8.027 8.027 0 0 0 731.325 47.926 A 23.29 23.29 0 0 0 730.758 47.727 Q 730.117 47.511 729.243 47.249 A 88.398 88.398 0 0 0 728.4 47.001 A 284.151 284.151 0 0 1 725.122 45.99 Q 720.5 44.532 717.65 43.426 Q 714.132 42.06 712.457 40.502 A 7.035 7.035 0 0 1 712.2 40.251 A 6.942 6.942 0 0 1 710.496 37.22 A 9.293 9.293 0 0 1 710.225 35.826 A 37.152 37.152 0 0 1 710.054 33.94 Q 709.9 31.663 709.9 28.501 L 709.9 18.501 Q 709.9 10.151 714.925 5.076 A 16.78 16.78 0 0 1 724.123 0.364 A 24.096 24.096 0 0 1 728.4 0.001 A 22.987 22.987 0 0 1 734.227 0.7 A 16.361 16.361 0 0 1 741.9 5.076 A 17.078 17.078 0 0 1 746.578 14.472 A 24.187 24.187 0 0 1 746.9 18.501 L 746.9 22.501 L 733.4 22.501 L 733.4 18.501 Q 733.4 16.251 732.1 14.876 Q 730.8 13.501 728.4 13.501 A 6.708 6.708 0 0 0 726.912 13.656 Q 725.882 13.89 725.135 14.478 A 4.021 4.021 0 0 0 724.7 14.876 A 4.66 4.66 0 0 0 723.509 17.273 A 6.635 6.635 0 0 0 723.4 18.501 L 723.4 28.501 Q 723.4 29.801 723.5 30.551 A 2.607 2.607 0 0 0 723.635 31.11 A 1.857 1.857 0 0 0 724.025 31.751 A 2.028 2.028 0 0 0 724.352 32.025 Q 724.718 32.276 725.301 32.502 A 8.217 8.217 0 0 0 725.5 32.576 A 30.924 30.924 0 0 0 726.075 32.774 Q 727.013 33.088 728.4 33.501 A 284.151 284.151 0 0 1 731.678 34.512 Q 736.3 35.97 739.15 37.076 Q 742.668 38.441 744.343 40 A 7.035 7.035 0 0 1 744.6 40.251 A 6.942 6.942 0 0 1 746.304 43.281 A 9.293 9.293 0 0 1 746.575 44.676 A 37.152 37.152 0 0 1 746.746 46.562 Q 746.9 48.838 746.9 52.001 L 746.9 59.701 Q 746.9 68.001 741.9 73.101 A 16.622 16.622 0 0 1 732.904 77.797 A 24.013 24.013 0 0 1 728.4 78.201 A 22.66 22.66 0 0 1 722.544 77.484 A 16.434 16.434 0 0 1 714.925 73.101 A 17.192 17.192 0 0 1 710.176 63.416 A 24.091 24.091 0 0 1 709.9 59.701 Z M 319.3 76.601 L 305.8 76.601 L 305.8 1.601 L 324.3 1.601 A 22.987 22.987 0 0 1 330.127 2.3 A 16.361 16.361 0 0 1 337.8 6.676 A 17.078 17.078 0 0 1 342.478 16.072 A 24.187 24.187 0 0 1 342.8 20.101 L 342.8 32.101 Q 342.8 37.401 340.7 41.451 Q 338.6 45.501 334.7 48.001 L 333.7 43.601 A 17.151 17.151 0 0 1 337.128 45.244 A 12.818 12.818 0 0 1 340.425 48.201 A 11.201 11.201 0 0 1 342.702 53.887 A 14.608 14.608 0 0 1 342.8 55.601 L 342.8 76.601 L 329.3 76.601 L 329.3 55.601 Q 329.3 53.351 328 51.976 Q 326.7 50.601 324.3 50.601 L 319.3 50.601 L 319.3 76.601 Z M 319.3 15.101 L 319.3 37.101 L 324.3 37.101 A 6.708 6.708 0 0 0 325.788 36.946 Q 326.818 36.711 327.565 36.124 A 4.021 4.021 0 0 0 328 35.726 A 4.66 4.66 0 0 0 329.191 33.329 A 6.635 6.635 0 0 0 329.3 32.101 L 329.3 20.101 Q 329.3 17.851 328 16.476 Q 326.7 15.101 324.3 15.101 L 319.3 15.101 Z M 609.8 76.601 L 596.3 76.601 L 596.3 1.601 L 614.8 1.601 A 22.987 22.987 0 0 1 620.627 2.3 A 16.361 16.361 0 0 1 628.3 6.676 A 17.078 17.078 0 0 1 632.978 16.072 A 24.187 24.187 0 0 1 633.3 20.101 L 633.3 32.101 Q 633.3 37.401 631.2 41.451 Q 629.1 45.501 625.2 48.001 L 624.2 43.601 A 17.151 17.151 0 0 1 627.628 45.244 A 12.818 12.818 0 0 1 630.925 48.201 A 11.201 11.201 0 0 1 633.202 53.887 A 14.608 14.608 0 0 1 633.3 55.601 L 633.3 76.601 L 619.8 76.601 L 619.8 55.601 Q 619.8 53.351 618.5 51.976 Q 617.2 50.601 614.8 50.601 L 609.8 50.601 L 609.8 76.601 Z M 609.8 15.101 L 609.8 37.101 L 614.8 37.101 A 6.708 6.708 0 0 0 616.288 36.946 Q 617.318 36.711 618.065 36.124 A 4.021 4.021 0 0 0 618.5 35.726 A 4.66 4.66 0 0 0 619.691 33.329 A 6.635 6.635 0 0 0 619.8 32.101 L 619.8 20.101 Q 619.8 17.851 618.5 16.476 Q 617.2 15.101 614.8 15.101 L 609.8 15.101 Z M 0 1.601 L 31 1.601 L 31 15.101 L 13.5 15.101 L 13.5 30.101 L 28.3 30.101 L 28.3 43.601 L 13.5 43.601 L 13.5 63.101 L 31 63.101 L 31 76.601 L 0 76.601 L 0 1.601 Z M 263.1 1.601 L 294.1 1.601 L 294.1 15.101 L 276.6 15.101 L 276.6 30.101 L 291.4 30.101 L 291.4 43.601 L 276.6 43.601 L 276.6 63.101 L 294.1 63.101 L 294.1 76.601 L 263.1 76.601 L 263.1 1.601 Z M 220.4 1.601 L 251.4 1.601 L 251.4 15.101 L 233.9 15.101 L 233.9 30.101 L 248.7 30.101 L 248.7 43.601 L 233.9 43.601 L 233.9 63.101 L 251.4 63.101 L 251.4 76.601 L 220.4 76.601 L 220.4 1.601 Z M 388.2 76.601 L 374.4 76.601 L 388.6 1.601 L 403.2 1.601 L 417.1 76.601 L 403.3 76.601 L 401.6 64.901 L 390 64.901 L 388.2 76.601 Z M 396.8 19.801 L 392 51.401 L 399.6 51.401 L 395 19.801 L 396.8 19.801 Z M 558.6 76.601 L 544.8 76.601 L 559 1.601 L 573.6 1.601 L 587.5 76.601 L 573.7 76.601 L 572 64.901 L 560.4 64.901 L 558.6 76.601 Z M 567.2 19.801 L 562.4 51.401 L 570 51.401 L 565.4 19.801 L 567.2 19.801 Z M 664.9 76.601 L 651.4 76.601 L 651.4 15.101 L 640.4 15.101 L 640.4 1.601 L 675.9 1.601 L 675.9 15.101 L 664.9 15.101 L 664.9 76.601 Z M 777 76.601 L 763.5 76.601 L 763.5 15.101 L 752.5 15.101 L 752.5 1.601 L 788 1.601 L 788 15.101 L 777 15.101 L 777 76.601 Z M 495 76.601 L 476.5 76.601 L 476.5 1.601 L 495 1.601 A 22.987 22.987 0 0 1 500.827 2.3 A 16.361 16.361 0 0 1 508.5 6.676 A 17.078 17.078 0 0 1 513.178 16.072 A 24.187 24.187 0 0 1 513.5 20.101 L 513.5 58.101 Q 513.5 66.401 508.5 71.501 A 16.622 16.622 0 0 1 499.504 76.197 A 24.013 24.013 0 0 1 495 76.601 Z M 490 15.101 L 490 63.101 L 495 63.101 A 6.708 6.708 0 0 0 496.488 62.946 Q 497.518 62.711 498.265 62.124 A 4.021 4.021 0 0 0 498.7 61.726 A 4.66 4.66 0 0 0 499.891 59.329 A 6.635 6.635 0 0 0 500 58.101 L 500 20.101 Q 500 17.851 498.7 16.476 Q 497.4 15.101 495 15.101 L 490 15.101 Z M 155.2 1.601 L 155.2 76.601 L 141.7 76.601 L 141.7 1.601 L 155.2 1.601 Z M 697.7 1.601 L 697.7 76.601 L 684.2 76.601 L 684.2 1.601 L 697.7 1.601 Z" vector-effect="non-scaling-stroke"/></g></svg>