<?xml version="1.0" encoding="UTF-8"?>
<svg id="title" xmlns="http://www.w3.org/2000/svg" viewBox="0 0 602.889 195.495">
  <polyline points="160.511 6.633 205.921 187.019 206.108 187.019 251.519 6.633" fill="none" stroke="#fff" stroke-linecap="round" stroke-linejoin="round" stroke-width="7"/>
  <line x1="276.051" y1="6.633" x2="276.051" y2="189.601" fill="none" stroke="#fff" stroke-linecap="round" stroke-linejoin="round" stroke-width="7"/>
  <polyline points="441.847 6.633 441.847 189.173 504.28 189.173" fill="none" stroke="#fff" stroke-linecap="round" stroke-linejoin="round" stroke-width="7"/>
  <path d="m517.905,6.633v145.028c0,21.895,17.75,39.645,39.645,39.645h0c21.895,0,39.645-17.75,39.645-39.645V6.633" fill="none" stroke="#fff" stroke-linecap="round" stroke-linejoin="round" stroke-width="7"/>
  <path d="m5.095,5.686v183.915h7.931c37.068,0,67.118-40.936,67.118-91.434h0v-1.047h0C80.144,46.622,50.094,5.686,13.026,5.686h-7.931Z" fill="none" stroke="#fff" stroke-linecap="round" stroke-linejoin="round" stroke-width="7"/>
  <path d="m300.873,5.686v183.915h7.931c37.068,0,67.118-40.936,67.118-91.434h0v-1.047h0c0-50.498-30.05-91.434-67.118-91.434h-7.931Z" fill="none" stroke="#fff" stroke-linecap="round" stroke-linejoin="round" stroke-width="7"/>
  <g>
    <polyline points="175.518 188.306 129.79 8.086 129.602 8.086 83.874 188.306" fill="none" stroke="#fff" stroke-linecap="round" stroke-linejoin="round" stroke-width="7"/>
    <line x1="104.372" y1="108.673" x2="154.831" y2="108.673" fill="none" stroke="#fff" stroke-linecap="round" stroke-linejoin="round" stroke-width="7"/>
  </g>
  <line x1="394.279" y1="109.857" x2="423.419" y2="109.857" fill="none" stroke="#fff" stroke-linecap="round" stroke-linejoin="round" stroke-width="7"/>
</svg>