<?xml version="1.0" encoding="UTF-8"?>
<svg id="Layer_2" data-name="Layer 2" xmlns="http://www.w3.org/2000/svg" viewBox="0 0 600.326 192.653">
  <g id="title">
    <g>
      <path d="m7.615,0c21.881,0,39.278,8.991,51.3,26.49,13.295,19.346,19.943,42.624,19.943,69.837s-6.647,50.572-19.943,69.837c-12.021,17.501-29.555,26.49-51.436,26.49h-3.739c-2.065,0-3.739-1.674-3.739-3.739V3.739C0,1.674,1.674,0,3.739,0h3.876Zm-.137,183.686c0,.888.731,1.617,1.619,1.598,19.938-.41,34.111-8.46,44.416-24.147,11.8-17.871,17.699-39.474,17.699-64.814s-5.9-46.858-17.699-64.814C43.223,15.926,28.061,7.919,9.097,7.49c-.888-.02-1.619.709-1.619,1.598v174.598Z" fill="#fff"/>
      <path d="m307.095,0c21.881,0,39.278,8.991,51.3,26.49,13.295,19.346,19.943,42.624,19.943,69.837s-6.647,50.572-19.943,69.837c-12.021,17.501-29.555,26.49-51.436,26.49h-3.739c-2.065,0-3.739-1.674-3.739-3.739V3.739c0-2.065,1.674-3.739,3.739-3.739h3.876Zm-.137,183.686c0,.888.731,1.617,1.619,1.598,19.938-.41,34.111-8.46,44.416-24.147,11.8-17.871,17.699-39.474,17.699-64.814s-5.9-46.858-17.699-64.814c-10.291-15.583-25.452-23.59-44.417-24.019-.888-.02-1.619.709-1.619,1.598v174.598Z" fill="#fff"/>
      <path d="m147.238,113.114h-37.716c-1.708,0-3.199,1.158-3.623,2.812l-18.346,71.704c-.423,1.655-1.914,2.812-3.623,2.812h-.279c-2.434,0-4.22-2.289-3.627-4.65L124.753,7.78c.948-3.771,6.307-3.77,7.253.001l44.652,178.013c.592,2.361-1.193,4.649-3.627,4.649h-.198c-1.708,0-3.199-1.157-3.622-2.812l-18.35-71.704c-.423-1.655-1.914-2.812-3.622-2.812Zm.937-9.239l-18.295-72.902c-.391-1.559-2.606-1.559-2.997,0l-18.295,72.902c-.245.975.493,1.921,1.499,1.921h36.589c1.006,0,1.743-.946,1.499-1.921Z" fill="#fff"/>
      <path d="m167.923,6.144l39.702,158.093c.296,1.18,1.974,1.18,2.27,0L249.598,6.144c.418-1.663,1.912-2.828,3.627-2.828h.266c2.434,0,4.22,2.289,3.627,4.65l-44.727,178.013c-.948,3.771-6.307,3.77-7.253-.001L160.485,7.964c-.592-2.361,1.193-4.649,3.627-4.649h.185c1.714,0,3.209,1.166,3.627,2.828Z" fill="#fff"/>
      <path d="m282.94,5.949v182.965c0,2.065-1.674,3.739-3.739,3.739h0c-2.065,0-3.739-1.674-3.739-3.739V5.949c0-2.065,1.674-3.739,3.739-3.739h0c2.065,0,3.739,1.674,3.739,3.739Z" fill="#fff"/>
      <path d="m437.543,187.447V4.172c0-2.065,1.674-3.739,3.739-3.739h0c2.065,0,3.739,1.674,3.739,3.739v178.414c0,.619.502,1.121,1.121,1.121h57.522c2.065,0,3.739,1.674,3.739,3.739h0c0,2.065-1.674,3.739-3.739,3.739h-62.382c-2.065,0-3.739-1.674-3.739-3.739Z" fill="#fff"/>
      <path d="m596.504.433h.083c2.065,0,3.739,1.674,3.739,3.739v149.332c0,.192-.013.386-.04.577-1.424,10.013-5.65,18.531-12.673,25.555-8.476,8.476-18.696,12.714-30.662,12.714s-22.27-4.238-30.745-12.714c-8.476-8.476-12.714-18.696-12.714-30.662V4.172c0-2.065,1.674-3.739,3.739-3.739h.083c2.065,0,3.739,1.674,3.739,3.739v144.802c0,9.861,3.503,18.295,10.512,25.303,7.007,7.008,15.469,10.512,25.386,10.512s18.364-3.503,25.344-10.512c6.98-7.007,10.47-15.441,10.47-25.303V4.172c0-2.065,1.674-3.739,3.739-3.739Z" fill="#fff"/>
      <rect x="386.764" y="96.061" width="40.449" height="7.83" rx="3.915" ry="3.915" fill="#fff"/>
    </g>
  </g>
</svg>