<svg preserveAspectRatio="none" width="314.001" height="76.602" viewBox="0 0 314.001 76.602" xmlns="http://www.w3.org/2000/svg"><g id="svgGroup" stroke-linecap="round" fill-rule="nonzero" font-size="9pt" stroke="#fff" stroke-width="0.25mm" fill="#fff" style="stroke:#fff;stroke-width:0.25mm;fill:#fff"><path d="M 300.5 0.001 L 314 0.001 L 314 58.101 Q 314 66.401 309 71.501 A 16.622 16.622 0 0 1 300.004 76.197 A 24.013 24.013 0 0 1 295.5 76.601 A 22.66 22.66 0 0 1 289.644 75.884 A 16.434 16.434 0 0 1 282.025 71.501 A 17.192 17.192 0 0 1 277.276 61.816 A 24.091 24.091 0 0 1 277 58.101 L 277 0.001 L 290.5 0.001 L 290.5 58.101 Q 290.5 60.351 291.8 61.726 Q 293.1 63.101 295.5 63.101 A 6.708 6.708 0 0 0 296.988 62.946 Q 298.018 62.711 298.765 62.124 A 4.021 4.021 0 0 0 299.2 61.726 A 4.66 4.66 0 0 0 300.391 59.329 A 6.635 6.635 0 0 0 300.5 58.101 L 300.5 0.001 Z M 114.8 75.001 L 100.2 75.001 L 86 0.001 L 99.8 0.001 L 108.4 55.901 L 106.6 55.901 L 114.9 0.001 L 128.7 0.001 L 114.8 75.001 Z M 56.1 75.001 L 42.3 75.001 L 56.5 0.001 L 71.1 0.001 L 85 75.001 L 71.2 75.001 L 69.5 63.301 L 57.9 63.301 L 56.1 75.001 Z M 64.7 18.201 L 59.9 49.801 L 67.5 49.801 L 62.9 18.201 L 64.7 18.201 Z M 18.5 75.001 L 0 75.001 L 0 0.001 L 18.5 0.001 A 22.987 22.987 0 0 1 24.327 0.7 A 16.361 16.361 0 0 1 32 5.076 A 17.078 17.078 0 0 1 36.678 14.472 A 24.187 24.187 0 0 1 37 18.501 L 37 56.501 Q 37 64.801 32 69.901 A 16.622 16.622 0 0 1 23.004 74.597 A 24.013 24.013 0 0 1 18.5 75.001 Z M 13.5 13.501 L 13.5 61.501 L 18.5 61.501 A 6.708 6.708 0 0 0 19.988 61.346 Q 21.018 61.111 21.765 60.524 A 4.021 4.021 0 0 0 22.2 60.126 A 4.66 4.66 0 0 0 23.391 57.729 A 6.635 6.635 0 0 0 23.5 56.501 L 23.5 18.501 Q 23.5 16.251 22.2 14.876 Q 20.9 13.501 18.5 13.501 L 13.5 13.501 Z M 184.1 75.001 L 165.6 75.001 L 165.6 0.001 L 184.1 0.001 A 22.987 22.987 0 0 1 189.927 0.7 A 16.361 16.361 0 0 1 197.6 5.076 A 17.078 17.078 0 0 1 202.278 14.472 A 24.187 24.187 0 0 1 202.6 18.501 L 202.6 56.501 Q 202.6 64.801 197.6 69.901 A 16.622 16.622 0 0 1 188.604 74.597 A 24.013 24.013 0 0 1 184.1 75.001 Z M 179.1 13.501 L 179.1 61.501 L 184.1 61.501 A 6.708 6.708 0 0 0 185.588 61.346 Q 186.618 61.111 187.365 60.524 A 4.021 4.021 0 0 0 187.8 60.126 A 4.66 4.66 0 0 0 188.991 57.729 A 6.635 6.635 0 0 0 189.1 56.501 L 189.1 18.501 Q 189.1 16.251 187.8 14.876 Q 186.5 13.501 184.1 13.501 L 179.1 13.501 Z M 239.7 0.001 L 253.2 0.001 L 253.2 61.501 L 268.7 61.501 L 268.7 75.001 L 239.7 75.001 L 239.7 0.001 Z M 151 0.001 L 151 75.001 L 137.5 75.001 L 137.5 0.001 L 151 0.001 Z" vector-effect="non-scaling-stroke"/></g></svg>