<?xml version="1.0" encoding="UTF-8"?>
<svg id="Layer_3" data-name="Layer 3" xmlns="http://www.w3.org/2000/svg" viewBox="0 0 440 860">
  <path d="m220.319,100.832c.316,77.559,10.389,105.47-58.485,119.925-36.172,7.592-68.203,20.346-77.657,64.368-11.788,54.89,57.345,88.034,137.127,49.832,76.842-36.794,143.113,14.578,137.061,67.415-4.931,43.05-60.161,74.918-134.748,39.397-65.328-31.112-160.049,25.184-134.496,82.262,24.664,55.089,80.302,37.333,117.598,26.813s69.972,26.836,71.018,57.319c1.286,37.478-43.526,55.481-73.35,51.392-25.636-3.515-42.229-20.443-27.188-40.31,16.313-21.545,42.818-13.205,42.549,19.82-.258,31.562.631,80.495.631,132.427" fill="none" stroke="#231f20" stroke-miterlimit="10"/>
</svg>