<?xml version="1.0" encoding="UTF-8"?>
<svg id="Layer_2" data-name="Layer 2" xmlns="http://www.w3.org/2000/svg" viewBox="0 0 601.756 129.247">
  <g id="title">
    <g>
      <path d="m25.177,4c18.805.114,33.382,5.641,43.728,16.58,11.423,12.074,17.135,26.585,17.135,43.533,0,17.062-5.712,31.602-17.135,43.618-10.346,10.883-24.923,16.382-43.728,16.495H4V4h21.177Zm-14.711,7.057v106.197h14.63c16.435,0,29.394-4.817,38.878-14.454,10.13-10.656,15.196-23.552,15.196-38.687s-5.066-27.974-15.196-38.687c-9.485-9.579-22.443-14.369-38.878-14.369h-14.63Z" fill="#fff" stroke="#fff" stroke-linecap="round" stroke-linejoin="round" stroke-width="8"/>
      <path d="m139.548,4l41.465,120.227h-6.789l-18.267-52.886h-39.525l-18.591,52.886h-6.87L132.921,4h6.628Zm14.064,60.624l-17.378-50.42-17.459,50.42h34.837Z" fill="#fff" stroke="#fff" stroke-linecap="round" stroke-linejoin="round" stroke-width="8"/>
      <path d="m252.061,4h6.789l-41.06,120.227h-3.96L172.769,4h6.789l36.292,107.983L252.061,4Z" fill="#fff" stroke="#fff" stroke-linecap="round" stroke-linejoin="round" stroke-width="8"/>
      <path d="m289.036,4v120.227h-6.466V4h6.466Z" fill="#fff" stroke="#fff" stroke-linecap="round" stroke-linejoin="round" stroke-width="8"/>
      <path d="m336.602,4c18.805.114,33.382,5.641,43.728,16.58,11.423,12.074,17.135,26.585,17.135,43.533,0,17.062-5.712,31.602-17.135,43.618-10.346,10.883-24.923,16.382-43.728,16.495h-21.177V4h21.177Zm-14.711,7.057v106.197h14.63c16.435,0,29.394-4.817,38.878-14.454,10.13-10.656,15.196-23.552,15.196-38.687s-5.066-27.974-15.196-38.687c-9.485-9.579-22.443-14.369-38.878-14.369h-14.63Z" fill="#fff" stroke="#fff" stroke-linecap="round" stroke-linejoin="round" stroke-width="8"/>
      <path d="m413.765,66.627h33.68v2.786h-33.68v-2.786Z" fill="#fff" stroke="#fff" stroke-linecap="round" stroke-linejoin="round" stroke-width="8"/>
      <path d="m462.773,124.227V4h6.466v113.424h43.566v6.802h-50.033Z" fill="#fff" stroke="#fff" stroke-linecap="round" stroke-linejoin="round" stroke-width="8"/>
      <path d="m591.29,4h6.466v84.059c-1.186,9.796-4.823,18.111-10.912,24.943-7.275,8.163-16.058,12.245-26.35,12.245-10.346,0-19.156-4.082-26.431-12.245s-10.912-18.019-10.912-29.569V4h6.466v79.433c0,9.494,3.017,17.627,9.053,24.399,6.034,6.773,13.309,10.158,21.824,10.158s15.774-3.386,21.783-10.158c6.008-6.772,9.012-14.905,9.012-24.399V4Z" fill="#fff" stroke="#fff" stroke-linecap="round" stroke-linejoin="round" stroke-width="8"/>
    </g>
  </g>
</svg>